<svg width="30" height="24" viewBox="0 0 30 24" fill="none" xmlns="http://www.w3.org/2000/svg">
<path d="M27.001 0H3.00098C1.35098 0 0.000976562 1.35 0.000976562 3V21C0.000976562 22.65 1.35098 24 3.00098 24H27.001C28.651 24 30.001 22.65 30.001 21V3C30.001 1.35 28.651 0 27.001 0ZM26.401 6.375L16.591 12.51C15.616 13.125 14.386 13.125 13.411 12.51L3.60098 6.375C3.45057 6.29057 3.31886 6.17649 3.21381 6.03968C3.10876 5.90287 3.03257 5.74617 2.98984 5.57906C2.94711 5.41195 2.93873 5.2379 2.96521 5.06746C2.99169 4.89702 3.05248 4.73372 3.1439 4.58745C3.23532 4.44118 3.35546 4.31498 3.49707 4.21649C3.63867 4.118 3.79878 4.04927 3.96772 4.01445C4.13666 3.97963 4.3109 3.97945 4.47991 4.01392C4.64892 4.04839 4.80917 4.1168 4.95098 4.215L15.001 10.5L25.051 4.215C25.1928 4.1168 25.353 4.04839 25.522 4.01392C25.6911 3.97945 25.8653 3.97963 26.0342 4.01445C26.2032 4.04927 26.3633 4.118 26.5049 4.21649C26.6465 4.31498 26.7666 4.44118 26.8581 4.58745C26.9495 4.73372 27.0103 4.89702 27.0367 5.06746C27.0632 5.2379 27.0548 5.41195 27.0121 5.57906C26.9694 5.74617 26.8932 5.90287 26.7881 6.03968C26.6831 6.17649 26.5514 6.29057 26.401 6.375Z" fill="white"/>
</svg>
