<svg width="31" height="30" viewBox="0 0 31 30" fill="none" xmlns="http://www.w3.org/2000/svg">
<path fill-rule="evenodd" clip-rule="evenodd" d="M3.53611 0.958496C3.86411 0.630453 4.25812 0.375905 4.692 0.211739C5.12587 0.0475726 5.5897 -0.0224591 6.0527 0.00628956C6.51571 0.0350382 6.96731 0.16191 7.37754 0.378488C7.78778 0.595067 8.14727 0.896401 8.43218 1.2625L11.7942 5.58656C12.4122 6.37858 12.6302 7.41259 12.3862 8.3866L11.3602 12.4927C11.3069 12.7057 11.3096 12.929 11.3681 13.1407C11.4266 13.3524 11.539 13.5453 11.6942 13.7007L16.3023 18.3068C16.4577 18.462 16.6506 18.5743 16.8623 18.6329C17.074 18.6914 17.2973 18.6941 17.5103 18.6408L21.6144 17.6147C22.0957 17.4945 22.5982 17.4853 23.0836 17.5879C23.569 17.6905 24.0248 17.9021 24.4164 18.2067L28.7405 21.5688C30.2945 22.7768 30.4385 25.0748 29.0465 26.4649L27.1065 28.4049C25.7204 29.7909 23.6464 30.4009 21.7124 29.7209C16.7651 27.9796 12.2733 25.1468 8.57018 21.4328C4.85541 17.7298 2.02198 13.238 0.280059 8.2906C-0.399951 6.35657 0.210058 4.28254 1.59608 2.89452L3.53611 0.956496V0.958496Z" fill="white"/>
</svg>
