<svg width="30" height="30" viewBox="0 0 30 30" fill="none" xmlns="http://www.w3.org/2000/svg">
<path d="M14.9889 7.27246C12.9459 7.27246 10.9865 8.08279 9.54187 9.52519C8.09723 10.9676 7.28564 12.9239 7.28564 14.9637C7.28564 17.0036 8.09723 18.9599 9.54187 20.4023C10.9865 21.8447 12.9459 22.655 14.9889 22.655C17.0319 22.655 18.9913 21.8447 20.4359 20.4023C21.8805 18.9599 22.6921 17.0036 22.6921 14.9637C22.6921 12.9239 21.8805 10.9676 20.4359 9.52519C18.9913 8.08279 17.0319 7.27246 14.9889 7.27246ZM14.9889 19.9588C13.6616 19.9588 12.3887 19.4323 11.4502 18.4953C10.5117 17.5582 9.98445 16.2873 9.98445 14.9621C9.98445 13.6369 10.5117 12.366 11.4502 11.4289C12.3887 10.4918 13.6616 9.96541 14.9889 9.96541C16.3161 9.96541 17.589 10.4918 18.5276 11.4289C19.4661 12.366 19.9933 13.6369 19.9933 14.9621C19.9933 16.2873 19.4661 17.5582 18.5276 18.4953C17.589 19.4323 16.3161 19.9588 14.9889 19.9588Z" fill="white"/>
<path d="M22.9966 8.78245C23.9884 8.78245 24.7924 7.97966 24.7924 6.98937C24.7924 5.99908 23.9884 5.19629 22.9966 5.19629C22.0047 5.19629 21.2007 5.99908 21.2007 6.98937C21.2007 7.97966 22.0047 8.78245 22.9966 8.78245Z" fill="white"/>
<path d="M29.2063 5.16633C28.8207 4.17196 28.2313 3.26893 27.476 2.51507C26.7207 1.7612 25.816 1.17311 24.8199 0.788423C23.6544 0.351558 22.423 0.115338 21.1782 0.0898202C19.5739 0.0199599 19.0658 0 14.9976 0C10.9295 0 10.408 -1.67303e-07 8.81706 0.0898202C7.57326 0.114033 6.34275 0.350302 5.17868 0.788423C4.18235 1.17266 3.27746 1.7606 2.52208 2.51452C1.7667 3.26844 1.1775 4.1717 0.792291 5.16633C0.354661 6.33003 0.118615 7.55961 0.0942684 8.8024C0.0226336 10.4025 0.000976562 10.9098 0.000976562 14.9734C0.000976562 19.0353 0.00097655 19.5526 0.0942684 21.1444C0.119257 22.3886 0.354153 23.6161 0.792291 24.7821C1.17858 25.7764 1.76835 26.6793 2.52392 27.4331C3.27948 28.1869 4.18422 28.7751 5.18034 29.16C6.34221 29.6144 7.57323 29.8676 8.82039 29.9085C10.4247 29.9784 10.9328 30 15.001 30C19.0692 30 19.5906 30 21.1816 29.9085C22.4262 29.8832 23.6575 29.6476 24.8233 29.2116C25.8191 28.826 26.7235 28.2374 27.4787 27.4833C28.234 26.7293 28.8235 25.8263 29.2097 24.832C29.6478 23.6677 29.8827 22.4401 29.9077 21.1959C29.9793 19.5958 30.001 19.0885 30.001 15.025C30.001 10.9614 30.001 10.4458 29.9077 8.85396C29.8883 7.5936 29.651 6.34606 29.2063 5.16633ZM27.1772 21.0213C27.1665 21.9799 26.9912 22.9295 26.6591 23.829C26.409 24.4758 26.0259 25.0632 25.5347 25.5534C25.0436 26.0435 24.455 26.4256 23.8071 26.675C22.9162 27.0051 21.9751 27.18 21.025 27.1923C19.4423 27.2655 18.9959 27.2838 14.9377 27.2838C10.8761 27.2838 10.4613 27.2838 8.84871 27.1923C7.89901 27.1807 6.95843 27.0057 6.06828 26.675C5.41805 26.4271 4.82717 26.0457 4.33387 25.5555C3.84057 25.0652 3.45583 24.4771 3.20455 23.829C2.87711 22.9392 2.70196 22.0007 2.68645 21.0529C2.61481 19.4727 2.59816 19.0269 2.59816 14.9751C2.59816 10.9215 2.59816 10.5073 2.68645 8.89554C2.69722 7.9375 2.87246 6.98839 3.20455 6.08949C3.71266 4.77711 4.75386 3.74418 6.06828 3.24185C6.95887 2.91274 7.89918 2.7378 8.84871 2.72455C10.433 2.65303 10.8778 2.63307 14.9377 2.63307C18.9975 2.63307 19.414 2.63307 21.025 2.72455C21.9752 2.73596 22.9164 2.91096 23.8071 3.24185C24.455 3.4918 25.0434 3.87426 25.5346 4.36465C26.0257 4.85505 26.4088 5.44257 26.6591 6.08949C26.9866 6.97929 27.1617 7.91777 27.1772 8.8656C27.2489 10.4474 27.2672 10.8916 27.2672 14.9451C27.2672 18.997 27.2672 19.4328 27.1956 21.023H27.1772V21.0213Z" fill="white"/>
</svg>
