<svg width="30" height="30" viewBox="0 0 30 30" fill="none" xmlns="http://www.w3.org/2000/svg">
<path d="M28.801 0H1.20098C0.537227 0 0.000976562 0.53625 0.000976562 1.2V28.8C0.000976562 29.4638 0.537227 30 1.20098 30H28.801C29.4647 30 30.001 29.4638 30.001 28.8V1.2C30.001 0.53625 29.4647 0 28.801 0ZM25.336 8.75625H22.9397C21.061 8.75625 20.6972 9.64875 20.6972 10.9613V13.8525H25.1822L24.5972 18.3787H20.6972V30H16.021V18.3825H12.1097V13.8525H16.021V10.515C16.021 6.64125 18.3872 4.53 21.8447 4.53C23.5022 4.53 24.9235 4.65375 25.3397 4.71V8.75625H25.336Z" fill="white"/>
</svg>
