<svg width="313" height="186" viewBox="0 0 313 186" fill="none" xmlns="http://www.w3.org/2000/svg">
<path d="M280.443 0.237018C280.418 0.160373 280.397 0.0816986 280.379 3.00304e-06L-8.13032e-06 1.52588e-05L0 186L313 186L313 1.57712e-06L292.559 2.47063e-06C292.424 0.0825678 292.313 0.168978 292.225 0.258196L305.417 0.258196L305.417 1.00965L291.835 1.00965C291.972 1.0895 292.064 1.177 292.106 1.26784L310.823 1.26784L310.823 184.657L2.18001 184.658L2.18 1.26785L281.103 1.26784C281.294 1.14781 280.65 1.05905 280.941 1.02074C280.984 1.02074 281.033 1.01367 281.075 1.00965L266.606 1.00965L266.606 0.258198L280.425 0.258197C280.425 0.250735 280.431 0.243426 280.443 0.237018ZM7.86262 1.00966L7.86262 0.258209L20.7998 0.258208L20.7998 1.00966L7.86262 1.00966ZM33.7339 1.00966L33.7339 0.258208L46.6741 0.258207L46.6741 1.00966L33.7339 1.00966ZM59.6112 1.00966L59.6112 0.258207L72.5484 0.258206L72.5484 1.00966L59.6112 1.00966ZM85.4855 1.00966L85.4855 0.258205L98.4227 0.258205L98.4227 1.00965L85.4855 1.00966ZM111.36 1.00965L111.36 0.258204L124.297 0.258204L124.297 1.00965L111.36 1.00965ZM137.234 1.00965L137.234 0.258203L150.171 0.258203L150.171 1.00965L137.234 1.00965ZM163.108 1.00965L163.108 0.258202L176.043 0.258202L176.043 1.00965L163.108 1.00965ZM188.983 1.00965L188.983 0.258201L201.92 0.2582L201.92 1.00965L188.983 1.00965ZM214.857 1.00965L214.857 0.2582L227.794 0.258199L227.794 1.00965L214.857 1.00965ZM312.559 19.9114L312.559 27.6083L311.258 27.6083L311.258 19.9114L312.559 19.9114ZM311.258 12.2135L311.258 4.51665L312.559 4.51665L312.559 12.2125L311.258 12.2135ZM312.559 35.3102L312.559 43.0081L311.258 43.0081L311.258 35.3102L312.559 35.3102ZM312.559 50.706L312.559 58.4029L311.258 58.4029L311.258 50.706L312.559 50.706ZM312.559 66.1008L312.559 73.7976L311.258 73.7976L311.258 66.1008L312.559 66.1008ZM312.559 81.4955L312.559 89.1884L311.258 89.1884L311.258 81.4915L312.559 81.4955ZM312.559 96.8903L312.559 104.584L311.258 104.584L311.258 96.8862L312.559 96.8903ZM312.559 112.285L312.559 119.979L311.258 119.979L311.258 112.281L312.559 112.285ZM312.559 127.68L312.559 135.374L311.258 135.374L311.258 127.676L312.559 127.68ZM312.559 143.076L312.559 150.768L311.258 150.768L311.258 143.072L312.559 143.076ZM312.559 158.464L312.559 166.164L311.258 166.164L311.258 158.464L312.559 158.464ZM312.559 173.859L312.559 181.562L311.258 181.562L311.258 173.864L312.559 173.859ZM20.7998 184.916L20.7998 185.742L7.86263 185.742L7.86263 184.916L20.7998 184.916ZM33.7339 184.916L46.6741 184.916L46.6741 185.742L33.7491 185.742L33.7339 184.916ZM59.6112 184.916L72.5453 184.916L72.5453 185.742L59.6112 185.742L59.6112 184.916ZM85.4825 184.916L98.4227 184.916L98.4227 185.742L85.4825 185.742L85.4825 184.916ZM111.36 184.916L124.297 184.916L124.297 185.742L111.36 185.742L111.36 184.916ZM137.234 184.916L150.171 184.916L150.171 185.742L137.234 185.742L137.234 184.916ZM163.108 184.916L176.043 184.916L176.043 185.742L163.108 185.742L163.108 184.916ZM188.983 184.916L201.92 184.916L201.92 185.742L188.983 185.742L188.983 184.916ZM214.857 184.916L227.794 184.916L227.794 185.742L214.857 185.742L214.857 184.916ZM240.731 184.916L253.665 184.916L253.665 185.742L240.731 185.742L240.731 184.916ZM266.606 184.916L279.543 184.916L279.543 185.742L266.606 185.742L266.606 184.916ZM292.48 184.916L305.417 184.916L305.417 185.742L292.492 185.742L292.48 184.916ZM1.74522 181.562L0.434785 181.562L0.434785 173.864L1.74522 173.864L1.74522 181.562ZM1.74522 166.167L0.434785 166.167L0.434784 158.464L1.74522 158.464L1.74522 166.167ZM1.74522 150.771L0.434784 150.771L0.434784 143.075L1.74522 143.075L1.74522 150.771ZM1.74522 135.377L0.434783 135.377L0.434783 127.679L1.74522 127.679L1.74522 135.377ZM1.74522 119.982L0.434783 119.982L0.434782 112.284L1.74522 112.284L1.74522 119.982ZM1.74522 104.587L0.434782 104.587L0.434782 96.8893L1.74522 96.8893L1.74522 104.587ZM1.74522 89.1914L0.434781 89.1914L0.434781 81.4945L1.74522 81.4945L1.74522 89.1914ZM1.74522 73.7966L0.434781 73.7966L0.43478 66.0998L1.74522 66.0998L1.74522 73.7966ZM1.74522 58.4019L0.43478 58.4019L0.43478 50.705L1.74522 50.705L1.74522 58.4019ZM1.74522 43.0071L0.434779 43.0071L0.434779 35.3102L1.74522 35.3102L1.74522 43.0071ZM1.74522 27.6113L0.434779 27.6113L0.434778 19.9145L1.74522 19.9145L1.74522 27.6113ZM1.74522 12.2166L0.434778 12.2166L0.434778 4.51968L1.74522 4.51968L1.74522 12.2166ZM253.668 1.01265L240.731 1.01265L240.731 0.261235L253.668 0.261235L253.668 1.01265Z" fill="#634329"/>
</svg>
