<svg width="50" height="50" viewBox="0 0 50 50" fill="none" xmlns="http://www.w3.org/2000/svg">
<path d="M25 0C11.215 0 0 11.215 0 25C0 38.785 11.215 50 25 50C38.785 50 50 38.785 50 25C50 11.215 38.785 0 25 0ZM25 45C13.9725 45 5 36.0275 5 25C5 13.9725 13.9725 5 25 5C36.0275 5 45 13.9725 45 25C45 36.0275 36.0275 45 25 45Z" fill="#395A71"/>
<path d="M32.0726 32.07C31.1587 32.9808 30.0794 33.7088 28.8926 34.215C26.7558 35.1171 24.372 35.2487 22.1489 34.5875C19.9258 33.9263 18.0015 32.5132 16.7051 30.59L12.5601 33.3875C13.6411 34.9828 15.0165 36.3574 16.6126 37.4375C18.2367 38.5358 20.0615 39.3029 21.9826 39.695C23.9746 40.1013 26.0281 40.1013 28.0201 39.695C29.9409 39.3024 31.7656 38.5353 33.3901 37.4375C34.1726 36.9075 34.9201 36.2925 35.6051 35.61C36.2851 34.9325 36.9051 34.1825 37.4401 33.3875L33.2951 30.59C32.9358 31.1212 32.5264 31.6168 32.0726 32.07Z" fill="#395A71"/>
<path d="M16.25 25C18.3211 25 20 23.3211 20 21.25C20 19.1789 18.3211 17.5 16.25 17.5C14.1789 17.5 12.5 19.1789 12.5 21.25C12.5 23.3211 14.1789 25 16.25 25Z" fill="#395A71"/>
<path d="M33.7325 24.965C35.7939 24.965 37.465 23.2939 37.465 21.2325C37.465 19.1711 35.7939 17.5 33.7325 17.5C31.6711 17.5 30 19.1711 30 21.2325C30 23.2939 31.6711 24.965 33.7325 24.965Z" fill="#395A71"/>
</svg>
