<svg width="50" height="50" viewBox="0 0 50 50" fill="none" xmlns="http://www.w3.org/2000/svg">
<path d="M23.2144 0H26.7858V8.92857H23.2144V0Z" fill="#395A71"/>
<path d="M35.1553 12.3213L41.416 6.05884L43.941 8.58562L37.6803 14.8463L35.1553 12.3213Z" fill="#395A71"/>
<path d="M41.0713 23.2143H49.9999V26.7857H41.0713V23.2143Z" fill="#395A71"/>
<path d="M35.1553 37.6786L37.6803 35.1536L43.941 41.4143L41.416 43.9411L35.1553 37.6786Z" fill="#395A71"/>
<path d="M23.2144 41.0714H26.7858V50H23.2144V41.0714Z" fill="#395A71"/>
<path d="M6.06055 41.4143L12.3213 35.1536L14.8463 37.6804L8.58555 43.9411L6.06055 41.4143Z" fill="#395A71"/>
<path d="M0 23.2143H8.92857V26.7857H0V23.2143Z" fill="#395A71"/>
<path d="M6.06055 8.58562L8.58555 6.05884L14.8463 12.3213L12.3213 14.8463L6.06055 8.58562Z" fill="#395A71"/>
<path d="M24.9999 14.2857C22.8808 14.2857 20.8094 14.9141 19.0474 16.0914C17.2854 17.2687 15.9122 18.942 15.1012 20.8998C14.2903 22.8576 14.0781 25.0119 14.4915 27.0902C14.9049 29.1686 15.9254 31.0777 17.4238 32.5761C18.9222 34.0746 20.8313 35.095 22.9097 35.5084C24.988 35.9218 27.1423 35.7096 29.1001 34.8987C31.0579 34.0878 32.7312 32.7145 33.9085 30.9525C35.0858 29.1906 35.7142 27.1191 35.7142 25C35.7142 22.1584 34.5854 19.4332 32.5761 17.4238C30.5668 15.4145 27.8415 14.2857 24.9999 14.2857Z" fill="#395A71"/>
</svg>
