<svg width="36" height="50" viewBox="0 0 36 50" fill="none" xmlns="http://www.w3.org/2000/svg">
<path fill-rule="evenodd" clip-rule="evenodd" d="M18.6321 2.22891C18.2572 2.20123 17.8815 2.18737 17.5056 2.18735V0C17.9355 0.000209608 18.3652 0.016261 18.794 0.0481216L18.6321 2.22891ZM23.0155 3.21321C22.3144 2.94265 21.5943 2.72405 20.861 2.5592L21.34 0.424345C22.1778 0.612457 23.0024 0.861814 23.803 1.17242L23.0155 3.21321ZM26.0122 4.76623C25.6995 4.55766 25.3792 4.36067 25.052 4.17564L26.1303 2.27265C26.8782 2.69642 27.5939 3.17455 28.2717 3.70318L26.9265 5.42899C26.63 5.19764 26.325 4.9773 26.0122 4.76842V4.76623ZM30.0238 8.68158C29.5911 8.06688 29.1137 7.48493 28.5955 6.94045L30.1791 5.43118C30.7697 6.05457 31.3165 6.72172 31.813 7.42167L30.0238 8.68158ZM31.6512 11.6389C31.5076 11.2921 31.3515 10.9506 31.1831 10.6152L33.1364 9.63089C33.5227 10.3988 33.8517 11.1943 34.1207 12.0107L32.0427 12.6954C31.9252 12.3385 31.7946 11.9861 31.6512 11.6389ZM32.8105 17.1225C32.7928 16.3708 32.7197 15.6215 32.5917 14.8805L34.7463 14.5087C34.8928 15.353 34.9781 16.2104 35 17.0679L32.8127 17.1225H32.8105ZM32.5239 20.4867C32.5961 20.1148 32.6552 19.7452 32.7011 19.3711L34.8731 19.6402C34.7681 20.4936 34.5999 21.338 34.3701 22.1666L32.2615 21.5825C32.3621 21.2216 32.4496 20.8563 32.5239 20.4867ZM30.4416 25.6904C30.8441 25.0561 31.1984 24.3911 31.5046 23.7043L33.5039 24.5901C33.1539 25.3776 32.7492 26.1344 32.2899 26.8606L30.4416 25.6904ZM28.333 28.3261C28.5998 28.0593 28.8558 27.7837 29.0986 27.4993L30.7566 28.9277C30.4758 29.2532 30.1832 29.5684 29.8794 29.8726L28.333 28.3261Z" fill="#395A71"/>
<path fill-rule="evenodd" clip-rule="evenodd" d="M17.5056 2.18735C14.9877 2.18753 12.5087 2.80866 10.2882 3.99571C8.06767 5.18277 6.17416 6.89911 4.77537 8.99273C3.37659 11.0863 2.51571 13.4926 2.26897 15.9984C2.02224 18.5042 2.39728 21.0321 3.36086 23.3583C4.32444 25.6846 5.84683 27.7373 7.79319 29.3346C9.73954 30.932 12.0498 32.0247 14.5193 32.5159C16.9888 33.0072 19.5414 32.8819 21.9509 32.1511C24.3604 31.4202 26.5525 30.1065 28.333 28.3261L29.8794 29.8726C27.8446 31.9085 25.339 33.4111 22.5847 34.2473C19.8304 35.0834 16.9123 35.2273 14.0891 34.6661C11.2659 34.105 8.62467 32.8561 6.39946 31.0302C4.17425 29.2043 2.43377 26.8577 1.33222 24.1984C0.230672 21.539 -0.197933 18.6491 0.0843832 15.7845C0.366699 12.9199 1.35122 10.1692 2.95071 7.77606C4.5502 5.38292 6.71528 3.42125 9.25412 2.06486C11.793 0.708471 14.6272 -0.000762798 17.5056 6.15647e-07V2.18735Z" fill="#395A71"/>
<path fill-rule="evenodd" clip-rule="evenodd" d="M16.4119 6.56204C16.702 6.56204 16.9802 6.67727 17.1853 6.88237C17.3904 7.08748 17.5056 7.36566 17.5056 7.65572V19.0518L24.6101 23.1115C24.8546 23.259 25.0317 23.4963 25.1036 23.7727C25.1755 24.0491 25.1364 24.3426 24.9947 24.5906C24.853 24.8385 24.62 25.0212 24.3454 25.0996C24.0708 25.178 23.7764 25.1459 23.5252 25.0101L15.8694 20.6354C15.7021 20.5398 15.5629 20.4017 15.4661 20.2349C15.3693 20.0682 15.3183 19.8789 15.3182 19.6861V7.65572C15.3182 7.36566 15.4335 7.08748 15.6386 6.88237C15.8437 6.67727 16.1219 6.56204 16.4119 6.56204Z" fill="#395A71"/>
<path d="M5.69336 47H4V40.4727L1.97852 41.0996V39.7227L5.51172 38.457H5.69336V47ZM14.2129 43.4727C14.2129 44.6523 13.9688 45.5547 13.4805 46.1797C12.9922 46.8047 12.2773 47.1172 11.3359 47.1172C10.4062 47.1172 9.69531 46.8105 9.20312 46.1973C8.71094 45.584 8.45898 44.7051 8.44727 43.5605V41.9902C8.44727 40.7988 8.69336 39.8945 9.18555 39.2773C9.68164 38.6602 10.3945 38.3516 11.3242 38.3516C12.2539 38.3516 12.9648 38.6582 13.457 39.2715C13.9492 39.8809 14.2012 40.7578 14.2129 41.9023V43.4727ZM12.5195 41.75C12.5195 41.043 12.4219 40.5293 12.2266 40.209C12.0352 39.8848 11.7344 39.7227 11.3242 39.7227C10.9258 39.7227 10.6309 39.877 10.4395 40.1855C10.252 40.4902 10.1523 40.9688 10.1406 41.6211V43.6953C10.1406 44.3906 10.2344 44.9082 10.4219 45.248C10.6133 45.584 10.918 45.752 11.3359 45.752C11.75 45.752 12.0488 45.5898 12.2324 45.2656C12.416 44.9414 12.5117 44.4453 12.5195 43.7773V41.75ZM18.7246 44.0293H15.4258V42.6641H18.7246V44.0293ZM24.127 47H22.4336V40.4727L20.4121 41.0996V39.7227L23.9453 38.457H24.127V47ZM27.1562 42.8047L27.6484 38.4688H32.4297V39.8809H29.0371L28.8262 41.7148C29.2285 41.5 29.6562 41.3926 30.1094 41.3926C30.9219 41.3926 31.5586 41.6445 32.0195 42.1484C32.4805 42.6523 32.7109 43.3574 32.7109 44.2637C32.7109 44.8145 32.5938 45.3086 32.3594 45.7461C32.1289 46.1797 31.7969 46.5176 31.3633 46.7598C30.9297 46.998 30.418 47.1172 29.8281 47.1172C29.3125 47.1172 28.834 47.0137 28.3926 46.8066C27.9512 46.5957 27.6016 46.3008 27.3438 45.9219C27.0898 45.543 26.9551 45.1113 26.9395 44.627H28.6152C28.6504 44.9824 28.7734 45.2598 28.9844 45.459C29.1992 45.6543 29.4785 45.752 29.8223 45.752C30.2051 45.752 30.5 45.6152 30.707 45.3418C30.9141 45.0645 31.0176 44.6738 31.0176 44.1699C31.0176 43.6855 30.8984 43.3145 30.6602 43.0566C30.4219 42.7988 30.084 42.6699 29.6465 42.6699C29.2441 42.6699 28.918 42.7754 28.668 42.9863L28.5039 43.1387L27.1562 42.8047ZM34.3516 41.0879L33.5547 40.625C33.8906 40.0977 34.0645 39.5527 34.0762 38.9902V38H35.4238V38.9082C35.4238 39.2598 35.3262 39.6406 35.1309 40.0508C34.9355 40.4609 34.6758 40.8066 34.3516 41.0879Z" fill="#395A71"/>
</svg>
