<svg width="44" height="50" viewBox="0 0 44 50" fill="none" xmlns="http://www.w3.org/2000/svg">
<path d="M43.0014 33.7109L39.7006 31.8066L42.2396 31.123C43.0404 30.9082 43.5189 30.0781 43.3041 29.2773L42.9135 27.8223C42.6986 27.0215 41.8685 26.543 41.0678 26.7578L34.1537 28.6133L27.9135 25L34.1439 21.3965L41.058 23.252C41.8588 23.4668 42.6889 22.9883 42.9037 22.1875L43.2943 20.7324C43.5092 19.9316 43.0307 19.1016 42.2299 18.8867L39.6908 18.2031L42.9916 16.2988C43.7142 15.8789 43.9584 14.9609 43.5482 14.2383L42.0346 11.6211C41.6146 10.8984 40.6967 10.6543 39.974 11.0645L36.6732 12.9688L37.3568 10.4297C37.5717 9.62891 37.0932 8.79883 36.2924 8.58398L34.8373 8.19336C34.0365 7.97852 33.2064 8.45703 32.9916 9.25781L31.1361 16.1719L25.0033 19.707V12.1387L30.2474 6.89453C30.8529 6.28906 30.8529 5.29297 30.2474 4.6875L29.1439 3.58398C28.5385 2.97852 27.5424 2.97852 26.9369 3.58398L25.0033 5.50781V1.5625C25.0033 0.703125 24.3002 0 23.4408 0H20.3158C19.4564 0 18.7533 0.703125 18.7533 1.5625V5.50781L16.8295 3.58398C16.224 2.97852 15.2279 2.97852 14.6224 3.58398L13.5092 4.6875C12.8939 5.29297 12.8939 6.28906 13.5092 6.89453L18.7533 12.1387V19.707L12.6205 16.1719L10.765 9.25781C10.5502 8.45703 9.72011 7.97852 8.91932 8.19336L7.46425 8.58398C6.66347 8.79883 6.18495 9.62891 6.39979 10.4297L7.08339 12.9688L3.78261 11.0645C3.05995 10.6445 2.14198 10.8984 1.72206 11.6211L0.208387 14.2285C-0.211535 14.9512 0.042371 15.8691 0.765027 16.2891L4.06581 18.1934L1.52675 18.877C0.716199 19.0918 0.237684 19.9219 0.452527 20.7324L0.843152 22.1875C1.058 22.9883 1.88807 23.4668 2.68886 23.252L9.60292 21.3965L15.8334 25L9.60292 28.6035L2.68886 26.748C1.88807 26.5332 1.058 27.0117 0.843152 27.8125L0.452527 29.2676C0.237684 30.0684 0.716199 30.8984 1.51698 31.1133L4.05604 31.7969L0.755262 33.7109C0.0326054 34.1309 -0.211535 35.0488 0.198621 35.7715L1.71229 38.3887C2.13221 39.1113 3.05018 39.3555 3.77284 38.9453L7.07362 37.041L6.39003 39.5801C6.17518 40.3809 6.6537 41.2109 7.45448 41.4258L8.90956 41.8164C9.71034 42.0312 10.5404 41.5527 10.7553 40.752L12.6107 33.8379L18.7435 30.3027V37.8711L13.4994 43.1152C12.8842 43.7207 12.8842 44.7168 13.4994 45.3223L14.6029 46.4258C15.2084 47.0312 16.2045 47.0312 16.8099 46.4258L18.7338 44.502V48.4375C18.7338 49.2969 19.4369 50 20.2963 50H23.4213C24.2807 50 24.9838 49.2969 24.9838 48.4375V44.4922L26.9076 46.416C27.5131 47.0215 28.5092 47.0215 29.1146 46.416L30.2182 45.3125C30.8236 44.707 30.8236 43.7109 30.2182 43.1055L25.0033 37.8613V30.293L31.1361 33.8281L32.9916 40.7422C33.2064 41.543 34.0365 42.0215 34.8373 41.8066L36.2924 41.416C37.0932 41.2012 37.5717 40.3711 37.3568 39.5703L36.6732 37.0312L39.974 38.9355C40.6967 39.3555 41.6146 39.1016 42.0346 38.3789L43.5482 35.7617C43.9682 35.0488 43.724 34.1211 43.0014 33.7109Z" fill="#395A71"/>
</svg>
