<svg width="48" height="50" viewBox="0 0 48 50" fill="none" xmlns="http://www.w3.org/2000/svg">
<path d="M5.26316 0H10.5263V7.89474H5.26316V0ZM15.7895 0H21.0526V7.89474H15.7895V0ZM26.3158 0H31.5789V7.89474H26.3158V0ZM42.1053 18.4211H36.8421V13.1579H0V42.1053C0 46.4579 3.54211 50 7.89474 50H28.9474C33.3 50 36.8421 46.4579 36.8421 42.1053H42.1053C45.0079 42.1053 47.3684 39.7447 47.3684 36.8421V23.6842C47.3684 20.7816 45.0079 18.4211 42.1053 18.4211ZM31.5789 42.1053C31.5789 42.8032 31.3017 43.4726 30.8082 43.9661C30.3147 44.4596 29.6453 44.7368 28.9474 44.7368H7.89474C7.1968 44.7368 6.52745 44.4596 6.03393 43.9661C5.54041 43.4726 5.26316 42.8032 5.26316 42.1053V18.4211H31.5789V42.1053ZM36.8421 36.8421V23.6842H42.1053L42.1105 36.8421H36.8421Z" fill="#395A71"/>
</svg>
