<svg width="50" height="50" viewBox="0 0 50 50" fill="none" xmlns="http://www.w3.org/2000/svg">
<path d="M15.5137 0.0149331C13.9355 -0.13351 12.4667 0.83723 12.0634 2.37049L10.617 7.86582C28.94 8.40197 41.335 20.6212 42.1104 38.824L47.6712 37.283C49.2064 36.8572 50.1605 35.361 49.9779 33.777C47.9388 16.122 33.279 1.69176 15.5137 0.0149331ZM9.80353 10.9529L0.052177 48.0138C-0.0187122 48.2831 -0.0173447 48.5662 0.0561414 48.8348C0.129627 49.1033 0.272633 49.3477 0.470732 49.5433C0.668832 49.739 0.915018 49.8789 1.18446 49.949C1.4539 50.0191 1.73706 50.0169 2.00538 49.9426L39.0185 39.6786C38.6015 22.5988 26.9985 11.1482 9.80353 10.9568V10.9529ZM12.4989 40.6268C11.8809 40.6268 11.2766 40.4436 10.7627 40.1002C10.2488 39.7568 9.84824 39.2687 9.61171 38.6977C9.37518 38.1266 9.31329 37.4983 9.43387 36.892C9.55446 36.2858 9.85209 35.729 10.2892 35.2919C10.7262 34.8549 11.283 34.5572 11.8893 34.4366C12.4955 34.3161 13.1238 34.378 13.6949 34.6145C14.2659 34.851 14.754 35.2516 15.0974 35.7655C15.4408 36.2794 15.6241 36.8836 15.6241 37.5017C15.6241 38.3306 15.2948 39.1254 14.7087 39.7115C14.1227 40.2976 13.3278 40.6268 12.4989 40.6268ZM17.1866 25.7825C16.5685 25.7825 15.9643 25.5992 15.4504 25.2558C14.9365 24.9125 14.5359 24.4244 14.2994 23.8533C14.0629 23.2823 14.001 22.6539 14.1216 22.0477C14.2421 21.4415 14.5398 20.8847 14.9768 20.4476C15.4139 20.0106 15.9707 19.7129 16.5769 19.5923C17.1832 19.4717 17.8115 19.5336 18.3826 19.7702C18.9536 20.0067 19.4417 20.4073 19.7851 20.9212C20.1285 21.4351 20.3117 22.0393 20.3117 22.6574C20.3117 23.4862 19.9825 24.2811 19.3964 24.8672C18.8103 25.4533 18.0155 25.7825 17.1866 25.7825ZM27.3433 35.9392C26.7252 35.9392 26.121 35.7559 25.607 35.4125C25.0931 35.0691 24.6926 34.581 24.456 34.01C24.2195 33.4389 24.1576 32.8106 24.2782 32.2044C24.3988 31.5981 24.6964 31.0413 25.1335 30.6042C25.5705 30.1672 26.1274 29.8696 26.7336 29.749C27.3398 29.6284 27.9682 29.6903 28.5392 29.9268C29.1102 30.1633 29.5983 30.5639 29.9417 31.0778C30.2851 31.5917 30.4684 32.196 30.4684 32.814C30.4684 33.6429 30.1391 34.4378 29.5531 35.0238C28.967 35.6099 28.1721 35.9392 27.3433 35.9392Z" fill="#395A71"/>
</svg>
