<svg width="48" height="50" viewBox="0 0 48 50" fill="none" xmlns="http://www.w3.org/2000/svg">
<path d="M11 0C8.08311 0.00158973 5.28614 1.16103 3.22358 3.22358C1.16103 5.28614 0.00158973 8.08311 0 11C0 17.07 4.93 22 11 22C12.626 22 14.156 21.594 15.562 20.938L26 34.688V46H18V50H38V46H30V34.688L47.626 11.438L48 10.876V8H21.5C20.29 3.36 15.968 0 11 0ZM11 4C13.78 4 16.18 5.68 17.25 8H8V10.876L8.376 11.436L13.062 17.626C12.4006 17.8656 11.7035 17.992 11 18C10.0778 18.0107 9.1627 17.837 8.30858 17.489C7.45446 17.141 6.67851 16.6258 6.02635 15.9736C5.37419 15.3215 4.85898 14.5455 4.511 13.6914C4.16301 12.8373 3.98928 11.9222 4 11C3.98928 10.0778 4.16301 9.1627 4.511 8.30858C4.85898 7.45446 5.37419 6.67851 6.02635 6.02635C6.67851 5.37419 7.45446 4.85898 8.30858 4.511C9.1627 4.16301 10.0778 3.98928 11 4ZM13.876 12H42.124L39.124 16H21L24 20H36.062L28 30.688L13.876 12Z" fill="#395A71"/>
</svg>
