<svg width="47" height="54" viewBox="0 0 47 54" fill="none" xmlns="http://www.w3.org/2000/svg">
<path d="M34.1427 20.75V47.5357C34.1392 48.7186 33.6677 49.8521 32.8313 50.6885C31.9948 51.525 30.8613 51.9965 29.6784 52H10.0356C8.85266 51.9965 7.7192 51.525 6.88275 50.6885C6.0463 49.8521 5.57482 48.7186 5.57129 47.5357V23.4286" stroke="#395A71" stroke-width="4" stroke-linecap="round" stroke-linejoin="round"/>
<path d="M34.1431 23.4286H38.6074C40.2635 23.4333 41.8505 24.0933 43.0216 25.2643C44.1926 26.4354 44.8526 28.0224 44.8574 29.6786V38.6071C44.8526 40.2633 44.1926 41.8503 43.0216 43.0213C41.8505 44.1924 40.2635 44.8524 38.6074 44.8571H34.1431" stroke="#395A71" stroke-width="4" stroke-miterlimit="10" stroke-linecap="round"/>
<path d="M19.8569 27V44.8571" stroke="#395A71" stroke-width="4" stroke-linecap="round" stroke-linejoin="round"/>
<path d="M27 27V44.8571" stroke="#395A71" stroke-width="4" stroke-linecap="round" stroke-linejoin="round"/>
<path d="M12.7144 27V44.8571" stroke="#395A71" stroke-width="4" stroke-linecap="round" stroke-linejoin="round"/>
<path d="M30.5714 10.9286C31.9922 10.9286 33.3548 11.493 34.3595 12.4976C35.3642 13.5023 35.9286 14.8649 35.9286 16.2857C35.9286 17.7065 35.3642 19.0691 34.3595 20.0738C33.3548 21.0784 31.9922 21.6428 30.5714 21.6428C29.0926 21.6428 27.3002 20.827 26.3304 19.8571H12.7143C11.8214 22.3125 9.70089 23.4286 7.35714 23.4286C5.93634 23.4286 4.57373 22.8641 3.56907 21.8595C2.56441 20.8548 2 19.4922 2 18.0714C2 16.6506 2.56441 15.288 3.56907 14.2833C4.57373 13.2787 5.93634 12.7143 7.35714 12.7143C8.40181 12.7582 9.41068 13.1074 10.2589 13.7187" stroke="#395A71" stroke-width="4" stroke-linecap="round" stroke-linejoin="round"/>
<path d="M5.10933 13.2087C4.67159 12.775 4.32837 12.2554 4.10129 11.6825C3.8742 11.1097 3.76818 10.496 3.78988 9.88015C3.81158 9.26432 3.96054 8.65964 4.22738 8.10419C4.49423 7.54875 4.87317 7.05456 5.34036 6.65274C5.80756 6.25092 6.35287 5.95018 6.94199 5.76944C7.53111 5.58869 8.15126 5.53187 8.76342 5.60255C9.37557 5.67323 9.96646 5.86987 10.4989 6.1801C11.0313 6.49033 11.4938 6.90742 11.8571 7.40513C11.8571 7.40513 12.7142 8.58482 12.7142 9.14285" stroke="#395A71" stroke-width="4" stroke-miterlimit="10" stroke-linecap="round"/>
<path d="M11.1328 5.65067C13.0737 3.43862 15.7913 2 18.9643 2C24.8103 2 29.4554 6.78125 29.4554 12.6261C29.4557 13.2923 29.3933 13.9571 29.269 14.6116" stroke="#395A71" stroke-width="4" stroke-miterlimit="10" stroke-linecap="round"/>
</svg>
