<svg width="35" height="50" viewBox="0 0 35 50" fill="none" xmlns="http://www.w3.org/2000/svg">
<path fill-rule="evenodd" clip-rule="evenodd" d="M18.6323 2.22891C18.2575 2.20123 17.8817 2.18737 17.5059 2.18735V0C17.9358 0.000209608 18.3655 0.016261 18.7942 0.0481216L18.6323 2.22891ZM23.0158 3.21321C22.3146 2.94265 21.5945 2.72405 20.8612 2.5592L21.3403 0.424345C22.178 0.612457 23.0027 0.861814 23.8032 1.17242L23.0158 3.21321ZM26.0124 4.76623C25.6997 4.55766 25.3794 4.36067 25.0522 4.17564L26.1306 2.27265C26.8784 2.69642 27.5942 3.17455 28.272 3.70318L26.9268 5.42899C26.6302 5.19764 26.3252 4.9773 26.0124 4.76842V4.76623ZM30.024 8.68158C29.5914 8.06688 29.114 7.48493 28.5957 6.94045L30.1793 5.43118C30.7699 6.05457 31.3168 6.72172 31.8133 7.42167L30.024 8.68158ZM31.6514 11.6389C31.5079 11.2921 31.3517 10.9506 31.1833 10.6152L33.1366 9.63089C33.5229 10.3988 33.8519 11.1943 34.1209 12.0107L32.043 12.6954C31.9254 12.3385 31.7948 11.9861 31.6514 11.6389ZM32.8107 17.1225C32.793 16.3708 32.7199 15.6215 32.592 14.8805L34.7465 14.5087C34.8931 15.353 34.9784 16.2104 35.0003 17.0679L32.8129 17.1225H32.8107ZM32.5242 20.4867C32.5964 20.1148 32.6554 19.7452 32.7014 19.3711L34.8734 19.6402C34.7683 20.4936 34.6002 21.338 34.3703 22.1666L32.2617 21.5825C32.3623 21.2216 32.4498 20.8563 32.5242 20.4867ZM30.4418 25.6904C30.8443 25.0561 31.1986 24.3911 31.5049 23.7043L33.5041 24.5901C33.1541 25.3776 32.7495 26.1344 32.2901 26.8606L30.4418 25.6904ZM28.3332 28.3261C28.6001 28.0593 28.856 27.7837 29.0988 27.4993L30.7568 28.9277C30.476 29.2532 30.1835 29.5684 29.8797 29.8726L28.3332 28.3261Z" fill="#395A71"/>
<path fill-rule="evenodd" clip-rule="evenodd" d="M17.5056 2.18735C14.9877 2.18753 12.5087 2.80866 10.2882 3.99571C8.06767 5.18277 6.17416 6.89911 4.77537 8.99273C3.37659 11.0863 2.51571 13.4926 2.26897 15.9984C2.02224 18.5042 2.39728 21.0321 3.36086 23.3583C4.32444 25.6846 5.84683 27.7373 7.79319 29.3346C9.73954 30.932 12.0498 32.0247 14.5193 32.5159C16.9888 33.0072 19.5414 32.8819 21.9509 32.1511C24.3604 31.4202 26.5525 30.1065 28.333 28.3261L29.8794 29.8726C27.8446 31.9085 25.339 33.4111 22.5847 34.2473C19.8304 35.0834 16.9123 35.2273 14.0891 34.6661C11.2659 34.105 8.62467 32.8561 6.39946 31.0302C4.17425 29.2043 2.43377 26.8577 1.33222 24.1984C0.230672 21.539 -0.197933 18.6491 0.0843832 15.7845C0.366699 12.9199 1.35122 10.1692 2.95071 7.77606C4.5502 5.38292 6.71528 3.42125 9.25412 2.06486C11.793 0.708471 14.6272 -0.000762798 17.5056 6.15647e-07V2.18735Z" fill="#395A71"/>
<path fill-rule="evenodd" clip-rule="evenodd" d="M16.412 6.56204C16.7021 6.56204 16.9803 6.67727 17.1854 6.88237C17.3905 7.08748 17.5057 7.36566 17.5057 7.65572V19.0518L24.6102 23.1115C24.8547 23.259 25.0319 23.4963 25.1037 23.7727C25.1756 24.0491 25.1365 24.3426 24.9948 24.5906C24.8532 24.8385 24.6201 25.0212 24.3455 25.0996C24.0709 25.178 23.7765 25.1459 23.5253 25.0101L15.8696 20.6354C15.7022 20.5398 15.563 20.4017 15.4662 20.2349C15.3694 20.0682 15.3184 19.8789 15.3184 19.6861V7.65572C15.3184 7.36566 15.4336 7.08748 15.6387 6.88237C15.8438 6.67727 16.122 6.56204 16.412 6.56204Z" fill="#395A71"/>
<path d="M4.69336 47H3V40.4727L0.978516 41.0996V39.7227L4.51172 38.457H4.69336V47ZM7.72266 42.8047L8.21484 38.4688H12.9961V39.8809H9.60352L9.39258 41.7148C9.79492 41.5 10.2227 41.3926 10.6758 41.3926C11.4883 41.3926 12.125 41.6445 12.5859 42.1484C13.0469 42.6523 13.2773 43.3574 13.2773 44.2637C13.2773 44.8145 13.1602 45.3086 12.9258 45.7461C12.6953 46.1797 12.3633 46.5176 11.9297 46.7598C11.4961 46.998 10.9844 47.1172 10.3945 47.1172C9.87891 47.1172 9.40039 47.0137 8.95898 46.8066C8.51758 46.5957 8.16797 46.3008 7.91016 45.9219C7.65625 45.543 7.52148 45.1113 7.50586 44.627H9.18164C9.2168 44.9824 9.33984 45.2598 9.55078 45.459C9.76562 45.6543 10.0449 45.752 10.3887 45.752C10.7715 45.752 11.0664 45.6152 11.2734 45.3418C11.4805 45.0645 11.584 44.6738 11.584 44.1699C11.584 43.6855 11.4648 43.3145 11.2266 43.0566C10.9883 42.7988 10.6504 42.6699 10.2129 42.6699C9.81055 42.6699 9.48438 42.7754 9.23438 42.9863L9.07031 43.1387L7.72266 42.8047ZM17.7246 44.0293H14.4258V42.6641H17.7246V44.0293ZM24.8613 47H19.0137V45.8398L21.7734 42.8984C22.1523 42.4844 22.4316 42.123 22.6113 41.8145C22.7949 41.5059 22.8867 41.2129 22.8867 40.9355C22.8867 40.5566 22.791 40.2598 22.5996 40.0449C22.4082 39.8262 22.1348 39.7168 21.7793 39.7168C21.3965 39.7168 21.0938 39.8496 20.8711 40.1152C20.6523 40.377 20.543 40.7227 20.543 41.1523H18.8438C18.8438 40.6328 18.9668 40.1582 19.2129 39.7285C19.4629 39.2988 19.8145 38.9629 20.2676 38.7207C20.7207 38.4746 21.2344 38.3516 21.8086 38.3516C22.6875 38.3516 23.3691 38.5625 23.8535 38.9844C24.3418 39.4062 24.5859 40.002 24.5859 40.7715C24.5859 41.1934 24.4766 41.623 24.2578 42.0605C24.0391 42.498 23.6641 43.0078 23.1328 43.5898L21.1934 45.6348H24.8613V47ZM31.6465 43.4727C31.6465 44.6523 31.4023 45.5547 30.9141 46.1797C30.4258 46.8047 29.7109 47.1172 28.7695 47.1172C27.8398 47.1172 27.1289 46.8105 26.6367 46.1973C26.1445 45.584 25.8926 44.7051 25.8809 43.5605V41.9902C25.8809 40.7988 26.127 39.8945 26.6191 39.2773C27.1152 38.6602 27.8281 38.3516 28.7578 38.3516C29.6875 38.3516 30.3984 38.6582 30.8906 39.2715C31.3828 39.8809 31.6348 40.7578 31.6465 41.9023V43.4727ZM29.9531 41.75C29.9531 41.043 29.8555 40.5293 29.6602 40.209C29.4688 39.8848 29.168 39.7227 28.7578 39.7227C28.3594 39.7227 28.0645 39.877 27.873 40.1855C27.6855 40.4902 27.5859 40.9688 27.5742 41.6211V43.6953C27.5742 44.3906 27.668 44.9082 27.8555 45.248C28.0469 45.584 28.3516 45.752 28.7695 45.752C29.1836 45.752 29.4824 45.5898 29.666 45.2656C29.8496 44.9414 29.9453 44.4453 29.9531 43.7773V41.75ZM33.3516 41.0879L32.5547 40.625C32.8906 40.0977 33.0645 39.5527 33.0762 38.9902V38H34.4238V38.9082C34.4238 39.2598 34.3262 39.6406 34.1309 40.0508C33.9355 40.4609 33.6758 40.8066 33.3516 41.0879Z" fill="#395A71"/>
</svg>
