<svg width="1042" height="2112" viewBox="0 0 1042 2112" fill="none" xmlns="http://www.w3.org/2000/svg">
<path d="M-226.313 1184.79C-23.1295 596.564 -1170.29 372.23 -74.0214 406.026C1022.25 439.822 12.6025 1049.35 497.234 1065.04C981.865 1080.73 898.391 977.605 465.97 1681.14C33.5488 2384.68 -430.166 1773.61 -226.313 1184.79Z" stroke="#1D1D1D" stroke-miterlimit="10"/>
<path d="M489.211 1072.19C961.988 1084.85 881.504 984.65 455.366 1668.28C29.229 2351.92 -415.477 1778.93 -210.936 1192.68C-6.39494 606.436 -1111.17 386.713 -58.1879 420.28C994.794 453.847 15.421 1058.83 489.211 1072.19Z" stroke="#1D1D1D" stroke-miterlimit="10"/>
<path d="M479.812 1080.48C939.445 1090.47 864.33 992.276 445.147 1655.41C25.9634 2318.55 -401.494 1784.8 -196.712 1201.53C8.07002 618.251 -1052.09 401.158 -44.2724 434.174C963.543 467.191 18.4005 1068.49 479.812 1080.48Z" stroke="#1D1D1D" stroke-miterlimit="10"/>
<path d="M469.059 1087.25C916.906 1096.55 846.989 999.715 434.957 1642.58C22.925 2285.44 -387.258 1790.51 -180.449 1208.62C26.3607 626.735 -992.58 416.085 -29.4853 448.154C933.61 480.223 21.212 1077.96 469.059 1087.25Z" stroke="#1D1D1D" stroke-miterlimit="10"/>
<path d="M459.083 1094.9C894.38 1102.19 830.622 1008.25 424.754 1629.72C18.8849 2251.19 -372.864 1796.85 -165.762 1217.09C41.3398 637.328 -934.573 431.115 -15.6049 462.906C903.363 494.697 23.6148 1086.97 459.083 1094.9Z" stroke="#1D1D1D" stroke-miterlimit="10"/>
<path d="M450.19 1101.96C871.819 1108.23 812.022 1015.16 413.923 1616.6C15.8246 2218.05 -359.072 1802.5 -149.744 1224.35C59.5827 646.196 -874.813 444.965 0.0274775 476.478C874.868 507.99 26.997 1097.07 450.19 1101.96Z" stroke="#1D1D1D" stroke-miterlimit="10"/>
<path d="M439.568 1110.22C849.317 1113.9 795.112 1022.63 403.941 1604C12.7706 2185.37 -345.049 1808.42 -134.364 1232.25C76.3204 656.078 -815.69 459.458 14.8247 490.469C845.34 521.481 29.8187 1106.55 439.568 1110.22Z" stroke="#1D1D1D" stroke-miterlimit="10"/>
<path d="M429.793 1118.1C825.875 1120.75 777.761 1030.06 393.742 1591.15C9.72257 2152.25 -330.823 1814.12 -119.228 1240.32C92.3682 666.531 -756.812 474.125 29.6019 504.437C816.015 534.749 32.6205 1116.01 429.793 1118.1Z" stroke="#1D1D1D" stroke-miterlimit="10"/>
<path d="M419.801 1125.72C804.225 1125.57 760.587 1037.68 382.852 1578.87C5.11673 2120.05 -317.511 1820.57 -104.557 1248.76C108.396 676.949 -698.399 489.154 44.0588 519.831C786.517 550.508 35.4021 1125.44 419.801 1125.72Z" stroke="#1D1D1D" stroke-miterlimit="10"/>
<path d="M410.082 1133.2C781.51 1131.44 743.661 1045.58 373.352 1565.46C3.04343 2085.33 -303.478 1826.5 -88.4973 1256.08C126.484 685.652 -638.846 503.68 59.1408 532.792C757.127 561.903 38.4316 1135.16 410.082 1133.2Z" stroke="#1D1D1D" stroke-miterlimit="10"/>
<path d="M400.299 1141.07C759.15 1137.72 725.313 1051.89 362.921 1552.8C0.527836 2053.71 -288.591 1831.6 -73.7388 1263.28C141.114 694.956 -579.727 517.72 73.3163 546.082C726.359 574.445 41.4477 1144.41 400.299 1141.07Z" stroke="#1D1D1D" stroke-miterlimit="10"/>
<path d="M390.31 1148.69C736.61 1143.34 708.736 1060.18 352.902 1540.15C-2.93239 2020.12 -274.21 1837.92 -57.4074 1272.24C159.396 706.573 -519.456 533.501 89.3394 560.1C698.134 586.699 44.2326 1153.84 390.31 1148.69Z" stroke="#1D1D1D" stroke-miterlimit="10"/>
<path d="M379.652 1157.36C712.956 1150.4 690.253 1069.02 341.201 1527.85C-7.85162 1986.67 -260.395 1843.59 -42.6556 1279.88C175.084 716.162 -461.331 546.859 102.787 575.259C666.905 603.659 47.2422 1163.53 379.652 1157.36Z" stroke="#1D1D1D" stroke-miterlimit="10"/>
<path d="M370.814 1164.04C50.0612 1173.01 638.689 616.377 118.226 589.072C-402.237 561.768 191.819 726.039 -27.2781 1287.77C-246.376 1849.51 -9.98922 1952.78 332.135 1514.03C674.259 1075.28 691.567 1155.08 370.814 1164.04Z" stroke="#1D1D1D" stroke-miterlimit="10"/>
</svg>
