<svg width="850" height="2265" viewBox="0 0 850 2265" fill="none" xmlns="http://www.w3.org/2000/svg">
<path d="M1189.82 2186.47C855.165 1615.39 235.394 2360.31 193.491 1557.35C151.587 754.396 -280.752 955.985 306.743 461.074C894.237 -33.8371 734.835 1.55411 1335.07 1.55408C1935.31 1.55405 1524.2 2757.82 1189.82 2186.47Z" stroke="#707070" stroke-miterlimit="10"/>
<path d="M310.137 478.341C888.005 4.66436 743.326 -0.148849 1321.19 13.7245C1899.06 27.5978 1547.7 2698.93 1188.97 2149.66C830.247 1600.38 225.199 2375.03 196.886 1566.41C168.573 757.79 -266.032 952.017 310.137 478.341Z" stroke="#707070" stroke-miterlimit="10"/>
<path d="M314.104 493.929C891.689 49.4153 740.214 4.96388 1311 22.5179C1881.79 40.0719 1538.64 2662.99 1185.01 2128.44C831.382 1593.89 211.894 2371.08 199.436 1570.96C186.978 770.83 -263.481 938.16 314.104 493.929Z" stroke="#707070" stroke-miterlimit="10"/>
<path d="M314.671 513.151C893.389 94.1184 739.366 5.78199 1301.94 31.8299C1864.52 57.8778 1531 2596.99 1179.63 2096.7C828.269 1596.41 198.305 2397.66 204.251 1576.3C210.196 754.943 -263.763 931.9 314.671 513.151Z" stroke="#707070" stroke-miterlimit="10"/>
<path d="M319.482 524.778C906.977 129.812 734.834 9.76528 1292.6 41.7589C1850.37 73.7526 1508.34 2561.61 1175.1 2074.35C841.857 1587.08 212.459 2383.81 216.14 1564.71C219.821 745.62 -267.729 919.745 319.482 524.778Z" stroke="#707070" stroke-miterlimit="10"/>
<path d="M325.998 534.105C916.041 180.193 741.916 -5.54032 1280.43 56.7482C1818.94 119.037 1501.55 2513.75 1175.67 2057.91C849.788 1602.07 281.83 2294.89 245.023 1522.79C208.216 750.699 -264.328 887.734 325.998 534.105Z" stroke="#707070" stroke-miterlimit="10"/>
<path d="M333.356 539.495C917.452 235.697 763.147 -17.7046 1264.29 68.3668C1765.43 154.438 1519.1 2449.77 1184.44 2013.75C849.785 1577.73 404.704 2113.41 293.434 1452.02C182.164 790.631 -250.458 841.594 333.356 539.495Z" stroke="#707070" stroke-miterlimit="10"/>
<path d="M338.455 544.291C912.642 307.028 791.463 -32.7274 1249.57 84.2052C1707.67 201.138 1521.65 2422.57 1192.94 1969.57C864.227 1516.56 504.652 1898.5 334.208 1369.33C163.764 840.162 -236.865 781.554 338.455 544.291Z" stroke="#707070" stroke-miterlimit="10"/>
<path d="M340.436 553.099C906.695 377.276 815.528 -41.4735 1240.51 103.772C1665.48 249.018 1501.27 2368.81 1193.22 1920.05C885.178 1471.29 562.41 1717.33 366.767 1291.78C171.124 866.241 -225.541 729.206 340.436 553.099Z" stroke="#707070" stroke-miterlimit="10"/>
<path d="M348.08 567.817C895.937 420.589 829.401 -42.0447 1230.6 123.303C1631.79 288.651 1485.41 2276.79 1192.66 1865.68C899.9 1454.58 607.711 1596.99 395.08 1233.17C182.449 869.35 -199.493 714.761 348.08 567.817Z" stroke="#707070" stroke-miterlimit="10"/>
<path d="M363.653 577.169C909.244 425.128 822.04 -92.7168 1213.04 135.769C1604.04 364.255 1463.9 2114.85 1187.84 1796.33C911.792 1477.8 649.897 1493.66 426.791 1175.14C203.685 856.618 -181.655 729.209 363.653 577.169Z" stroke="#707070" stroke-miterlimit="10"/>
<path d="M377.241 593.021C890.272 449.757 842.423 -81.3943 1198.32 154.453C1554.21 390.3 1449.17 1959.41 1187.84 1736.3C926.513 1513.19 690.666 1396.54 461.897 1132.67C233.128 868.79 -135.791 736.285 377.241 593.021Z" stroke="#707070" stroke-miterlimit="10"/>
<path d="M388.571 610.563C865.078 476.36 860.548 -60.7375 1187.85 174.26C1515.14 409.258 1434.74 1824.06 1184.45 1674.85C934.162 1525.64 719.833 1314.42 495.028 1096.98C270.223 879.537 -86.2379 744.767 388.571 610.563Z" stroke="#707070" stroke-miterlimit="10"/>
<path d="M400.455 626.166C-46.0411 749.611 317.498 895.706 527.014 1058.79C736.53 1221.87 942.365 1552.85 1178.21 1610.04C1414.06 1667.23 1487.11 430.523 1178.21 194.393C869.318 -41.7375 848.083 502.721 400.455 626.166Z" stroke="#707070" stroke-miterlimit="10"/>
</svg>
