<svg width="248" height="60" viewBox="0 0 248 60" fill="none" xmlns="http://www.w3.org/2000/svg">
<g clip-path="url(#clip0)">
<path d="M3.88162 20.7707C1.40399 20.3165 0 18.5409 0 16.4349C0 14.3289 1.40399 13.214 3.88162 13.7095C9.04336 14.7418 14.2464 15.5677 19.4494 16.1871C21.927 16.4762 23.331 18.0453 23.331 20.1926C23.331 22.3399 21.927 23.5787 19.4494 23.2897C17.8802 23.0832 17.0957 23.0006 15.5678 22.7528C15.5678 27.5842 15.5678 32.4156 15.5678 37.2883C15.5678 39.3943 14.1638 40.6331 11.6862 40.2614C9.20853 39.8485 7.80454 38.1968 7.80454 36.0495C7.80454 31.2181 7.80454 26.3867 7.80454 21.514C6.23537 21.225 5.45079 21.1011 3.88162 20.7707Z" fill="white"/>
<path d="M33.4478 24.6111C33.4478 25.4783 33.4478 25.8912 33.4478 26.7171C36.1319 26.8822 37.4946 26.9648 40.1787 27.0887C42.2847 27.1713 43.73 28.6166 43.73 30.3922C43.73 32.1679 42.326 33.5306 40.1787 33.448C37.4946 33.3241 36.1319 33.2828 33.4478 33.0763C33.4478 33.9435 33.4478 34.3564 33.4478 35.1823C37.412 35.4301 39.3941 35.5127 43.3583 35.6366C45.836 35.7191 47.24 37.1231 47.24 39.2704C47.24 41.3764 45.836 42.7804 43.3583 42.7391C38.7334 42.5739 34.1498 42.3262 29.5662 41.9958C27.0886 41.7893 25.6846 40.2202 25.6846 38.1142C25.6846 32.2092 25.6846 26.3041 25.6846 20.3991C25.6846 18.2931 27.0886 17.013 29.5662 17.2195C34.0672 17.5498 38.527 17.7976 43.028 17.9628C45.5056 18.0454 46.9096 19.4906 46.9096 21.5966C46.9096 23.7026 45.5056 25.1066 43.028 25.024C39.1877 24.9414 37.2881 24.8589 33.4478 24.6111Z" fill="white"/>
<path d="M57.316 34.0259C57.316 36.2971 57.316 37.412 57.316 39.6832C57.316 41.7892 55.912 43.2345 53.4344 43.2758C50.9567 43.2758 49.5527 41.8718 49.5527 39.7245C49.5527 33.6956 49.5527 27.6667 49.5527 21.6791C49.5527 19.5731 50.9567 18.1691 53.4344 18.1278C56.4075 18.1278 57.8941 18.0865 60.8672 18.0039C65.7812 17.6736 71.5624 19.7796 71.4798 25.5607C71.3972 29.8966 67.5981 31.5896 67.5981 31.5896C67.5981 31.7135 67.5981 31.7961 67.5981 31.9613C69.0021 33.613 69.7041 34.3976 71.1494 36.0493C71.1494 36.0493 72.5534 37.7424 72.5534 39.1464C72.5534 41.2524 71.1494 42.7802 68.3001 42.9041C66.5245 42.9867 65.1205 41.2524 65.1205 41.2524C62.8494 38.3618 61.7344 36.9165 59.4633 33.9847C58.5548 33.9847 58.1419 33.9847 57.316 34.0259ZM60.826 27.9145C62.4364 27.8732 63.3036 26.9647 63.3036 25.8911C63.3036 24.8174 62.4364 23.9915 60.826 24.0328C59.422 24.0741 58.72 24.0741 57.2747 24.1154C57.2747 25.6846 57.2747 26.4692 57.2747 27.997C58.72 27.9557 59.422 27.9557 60.826 27.9145Z" fill="white"/>
<path d="M86.552 35.7193C85.4784 33.1178 84.9416 31.7963 83.9092 29.1948C83.7853 29.1948 83.7027 29.1948 83.5376 29.2361C82.9182 32.9526 82.5878 34.8108 81.9271 38.5685C81.5555 40.7158 80.1515 42.2437 77.839 42.3676C75.5266 42.5328 74.1226 41.1701 74.1226 39.0641C74.1226 37.6601 74.4942 35.8431 74.4942 35.8431C75.3201 30.8466 76.146 25.85 76.9718 20.8122C77.3848 18.2932 79.0778 16.435 82.0923 16.2286C84.7351 16.0221 86.3455 17.5087 87.4192 20.0689C88.6993 23.2898 89.3187 24.9003 90.5988 28.0799C90.7227 28.0799 90.8053 28.0799 90.9705 28.0386C92.2506 24.6112 92.87 22.9182 94.1501 19.4908C95.1824 16.7241 96.7929 14.9897 99.477 14.742C102.491 14.4529 104.226 16.0634 104.597 18.4997C105.423 23.3724 106.249 28.2451 107.075 33.1177C107.075 33.1177 107.447 34.8521 107.447 36.2561C107.447 38.3621 106.043 39.9312 103.73 40.179C101.418 40.4268 100.014 39.1467 99.6422 37.0407C99.0228 33.4068 98.6924 31.5899 98.0317 27.9973C97.9078 27.9973 97.8252 27.9973 97.6601 28.0386C96.5864 30.8466 96.0496 32.2093 95.0173 35.0173C94.1501 37.4123 92.9113 38.7337 90.764 38.9402C88.6993 39.1054 87.4192 37.9904 86.552 35.7193Z" fill="white"/>
<path d="M166.414 26.5107C168.892 26.3455 170.296 27.6669 170.296 29.7729C170.296 31.8789 168.892 33.4068 166.414 33.5719C162.285 33.861 158.156 34.1913 154.026 34.563C151.549 34.7694 150.145 33.4893 150.145 31.3834C150.145 25.3544 150.145 19.3255 150.145 13.3379C150.145 11.2319 151.549 9.66277 154.026 9.4563C156.504 9.24983 157.908 10.5299 157.908 12.6359C157.908 17.4673 157.908 22.2987 157.908 27.1714C161.294 26.8823 162.987 26.7584 166.414 26.5107Z" fill="white"/>
<path d="M179.422 29.6902C178.555 31.8375 177.11 33.3241 175.169 33.448C172.856 33.5718 171.287 32.0853 171.287 30.1444C171.287 29.0708 172.154 26.8822 172.154 26.8822C174.054 21.8031 175.912 16.7652 177.812 11.6861C178.885 8.96069 180.454 7.30893 184.006 7.18505C187.557 7.06117 189.167 8.63034 190.2 11.2731C192.099 16.2284 193.999 21.1424 195.857 26.0976C195.857 26.0976 196.724 28.2036 196.724 29.2773C196.724 31.2181 195.114 32.8285 192.843 32.8285C190.902 32.8698 189.498 31.4658 188.589 29.3599C188.218 28.534 188.052 28.0798 187.722 27.2539C184.749 27.3365 183.262 27.3778 180.289 27.5016C179.959 28.3688 179.752 28.823 179.422 29.6902ZM186.153 20.9359C185.368 18.8299 184.997 17.7976 184.212 15.6916C184.088 15.6916 184.006 15.6916 183.84 15.6916C183.056 17.8389 182.684 18.9125 181.9 21.0598C183.593 21.0185 184.419 20.9772 186.153 20.9359Z" fill="white"/>
<path d="M206.8 21.3076C206.8 24.5698 206.8 26.1803 206.8 29.4425C206.8 31.5485 205.396 32.9112 202.918 32.8699C200.441 32.8286 199.037 31.3833 199.037 29.2773C199.037 23.1245 199.037 17.013 199.037 10.8602C199.037 8.75425 200.441 7.30896 202.918 7.39155C205.024 7.43284 206.263 8.71295 207.873 11.0667C210.269 14.4115 211.466 16.1046 213.902 19.4907C214.026 19.4907 214.109 19.4907 214.274 19.5319C214.274 16.2697 214.274 14.6593 214.274 11.3971C214.274 9.29107 215.678 7.92837 218.156 8.13484C220.633 8.34131 222.037 9.86918 222.037 12.0165C222.037 18.1692 222.037 24.2807 222.037 30.4335C222.037 32.5395 220.633 33.8196 218.156 33.6545C216.05 33.4893 214.811 32.1679 213.2 29.7728C210.805 26.3867 209.608 24.6937 207.172 21.3489C207.006 21.3076 206.924 21.3076 206.8 21.3076Z" fill="white"/>
<path d="M247.722 27.0472C247.887 33.7781 241.321 36.5035 235.499 35.3886C233.021 35.0169 231.783 34.8104 229.305 34.5214C226.827 34.191 225.423 32.6219 225.423 30.5159C225.423 24.6109 225.423 18.7058 225.423 12.8008C225.423 10.6948 226.827 9.41471 229.305 9.74506C231.783 10.0754 233.021 10.2406 235.499 10.6122C241.982 11.6033 247.681 16.6824 247.722 23.5372C247.722 24.9412 247.722 25.6432 247.722 27.0472ZM233.228 16.6411C233.228 20.6466 233.228 24.6521 233.228 28.6989C234.136 28.8228 234.591 28.9054 235.54 29.0293C238.018 29.4009 239.794 27.9557 239.794 25.478C239.794 24.074 239.794 23.372 239.794 21.9268C239.794 19.4491 238.018 17.3431 235.54 16.9715C234.591 16.8476 234.136 16.765 233.228 16.6411Z" fill="white"/>
<path d="M128.011 40.7568C118.72 40.7568 111.163 33.2001 111.163 23.9089C111.163 14.6178 118.72 7.06104 128.011 7.06104C137.302 7.06104 144.859 14.6178 144.859 23.9089C144.818 33.2413 137.261 40.7568 128.011 40.7568ZM128.011 13.2964C122.147 13.2964 117.357 18.0865 117.357 23.9502C117.357 29.814 122.147 34.604 128.011 34.604C133.875 34.604 138.665 29.814 138.665 23.9502C138.623 18.0865 133.875 13.2964 128.011 13.2964Z" fill="white"/>
<path d="M112.774 10.9016C109.759 10.9016 107.323 8.46524 107.323 5.45079C107.323 2.43634 109.759 0 112.774 0C115.788 0 118.224 2.43634 118.224 5.45079C118.224 8.46524 115.747 10.9016 112.774 10.9016ZM112.774 1.44529C110.544 1.44529 108.768 3.26222 108.768 5.45079C108.768 7.68066 110.585 9.4563 112.774 9.4563C114.962 9.4563 116.779 7.63937 116.779 5.45079C116.779 3.26222 114.962 1.44529 112.774 1.44529Z" fill="white"/>
<path d="M138.128 42.7803C133.545 42.7803 129.828 39.0639 129.828 34.4802C129.828 29.8966 133.545 26.1802 138.128 26.1802C142.712 26.1802 146.428 29.8966 146.428 34.4802C146.387 39.0639 142.671 42.7803 138.128 42.7803ZM138.128 28.2862C134.701 28.2862 131.893 31.0941 131.893 34.5215C131.893 37.9489 134.701 40.7569 138.128 40.7569C141.556 40.7569 144.364 37.9489 144.364 34.5215C144.322 31.0941 141.556 28.2862 138.128 28.2862Z" fill="white"/>
<path d="M4.04688 58.6371V50.5435H8.67179V52.2778H5.9051V58.6371H4.04688Z" fill="white"/>
<path d="M16.9307 54.5901C16.9307 53.3926 17.3436 52.4015 18.1282 51.617C18.9128 50.8324 19.9451 50.4194 21.2252 50.4194C22.464 50.4194 23.4964 50.7911 24.3223 51.5757C25.1481 52.319 25.5198 53.3513 25.5198 54.6314C25.5198 55.8289 25.1068 56.8613 24.281 57.6459C23.4551 58.4305 22.4227 58.8434 21.1839 58.8434C19.9451 58.8434 18.9128 58.4717 18.0869 57.6872C17.3436 56.8613 16.9307 55.8289 16.9307 54.5901ZM18.9128 54.5901C18.9128 55.2921 19.1605 55.8702 19.6148 56.3245C20.069 56.7787 20.6058 57.0265 21.2665 57.0265C22.0098 57.0265 22.5879 56.7787 23.0009 56.3245C23.4138 55.8702 23.6203 55.2921 23.6203 54.5488C23.6203 53.8055 23.4138 53.2274 22.9596 52.7732C22.5053 52.319 21.9685 52.0712 21.3078 52.0712C20.6471 52.0712 20.069 52.2777 19.6148 52.7319C19.1192 53.2687 18.9128 53.8468 18.9128 54.5901Z" fill="white"/>
<path d="M36.7518 58.6371H34.8936V50.5435C35.0174 50.5435 35.4304 50.5435 36.0498 50.5435C36.6692 50.5435 37.1234 50.5435 37.3712 50.5435C38.5274 50.5435 39.3533 50.7912 39.8488 51.2867C40.3856 51.7823 40.6334 52.443 40.6334 53.2276C40.6334 53.9708 40.3444 54.6316 39.8075 55.1684C39.2707 55.7052 38.5274 55.953 37.619 55.953C37.206 55.953 36.917 55.953 36.7105 55.9117V58.6371H36.7518ZM37.5777 52.2365C37.5364 52.2365 37.2886 52.2365 36.7518 52.2778V54.136C37.0408 54.1773 37.3299 54.1773 37.5777 54.1773C37.8667 54.1773 38.1145 54.0947 38.3209 53.9296C38.5274 53.7644 38.6513 53.5166 38.6513 53.1863C38.6926 52.5669 38.3209 52.2365 37.5777 52.2365Z" fill="white"/>
<path d="M49.4287 54.5901C49.4287 53.3926 49.8417 52.4015 50.6262 51.617C51.4108 50.8324 52.4432 50.4194 53.7233 50.4194C54.9621 50.4194 55.9944 50.7911 56.8203 51.5757C57.6462 52.319 58.0178 53.3513 58.0178 54.6314C58.0178 55.8289 57.6049 56.8613 56.779 57.6459C55.9531 58.4305 54.9208 58.8434 53.682 58.8434C52.4432 58.8434 51.4108 58.4717 50.5849 57.6872C49.8417 56.8613 49.4287 55.8289 49.4287 54.5901ZM51.4108 54.5901C51.4108 55.2921 51.6586 55.8702 52.1128 56.3245C52.567 56.7787 53.1039 57.0265 53.7646 57.0265C54.5079 57.0265 55.086 56.7787 55.4989 56.3245C55.9118 55.8702 56.1183 55.2921 56.1183 54.5488C56.1183 53.8055 55.9119 53.2274 55.4576 52.7732C55.0034 52.319 54.4666 52.0712 53.8059 52.0712C53.1452 52.0712 52.567 52.2777 52.1128 52.7319C51.6173 53.2687 51.4108 53.8468 51.4108 54.5901Z" fill="white"/>
<path d="M66.2769 59.9998V56.8614H67.144C67.3505 56.5724 67.5983 55.9943 67.846 55.1684C68.0938 54.3012 68.259 53.3101 68.3003 52.1539L68.3828 50.5435H73.6685V56.9027H74.7834V60.0411H73.0491V58.6371H68.0112V60.0411H66.2769V59.9998ZM70.0346 53.6405C69.9933 54.3012 69.8694 54.9619 69.663 55.6226C69.4978 56.2833 69.3326 56.6963 69.1674 56.9027H71.8102V52.2778H70.1585L70.0346 53.6405Z" fill="white"/>
<path d="M89.2776 56.4486L89.9796 57.8526C89.7318 58.1417 89.3602 58.3481 88.8646 58.5133C88.3691 58.6785 87.8736 58.7611 87.3368 58.7611C86.098 58.7611 85.0656 58.3894 84.281 57.6048C83.4964 56.8203 83.0835 55.8292 83.0835 54.5904C83.0835 53.3929 83.4551 52.3605 84.1984 51.5759C84.9417 50.7914 85.9741 50.3784 87.3368 50.3784C87.8323 50.3784 88.3278 50.461 88.7821 50.6262C89.2363 50.7914 89.5666 50.9978 89.8144 51.2456L88.9885 52.6496C88.4517 52.3192 87.8736 52.1541 87.3368 52.1541C86.6761 52.1541 86.1393 52.3605 85.7263 52.8148C85.3134 53.2277 85.0656 53.8471 85.0656 54.6317C85.0656 55.3337 85.3134 55.9531 85.7676 56.4073C86.2218 56.8616 86.8 57.1093 87.5432 57.1093C88.1627 57.0267 88.7821 56.8203 89.2776 56.4486Z" fill="white"/>
<path d="M99.1465 58.6371V50.5435H101.005V54.0534L103.648 50.5435H105.877L102.822 54.2599L106.125 58.6371H103.771L101.005 54.7967V58.6371H99.1465Z" fill="white"/>
<path d="M114.013 54.5901C114.013 53.3926 114.426 52.4015 115.21 51.617C115.995 50.8324 117.027 50.4194 118.307 50.4194C119.546 50.4194 120.578 50.7911 121.404 51.5757C122.23 52.319 122.602 53.3513 122.602 54.6314C122.602 55.8289 122.189 56.8613 121.363 57.6459C120.537 58.4305 119.505 58.8434 118.266 58.8434C117.027 58.8434 115.995 58.4717 115.169 57.6872C114.384 56.8613 114.013 55.8289 114.013 54.5901ZM115.954 54.5901C115.954 55.2921 116.201 55.8702 116.656 56.3245C117.11 56.7787 117.647 57.0265 118.307 57.0265C119.051 57.0265 119.629 56.7787 120.042 56.3245C120.455 55.8702 120.661 55.2921 120.661 54.5488C120.661 53.8055 120.455 53.2274 120 52.7732C119.546 52.319 119.009 52.0712 118.349 52.0712C117.688 52.0712 117.11 52.2777 116.656 52.7319C116.201 53.2687 115.954 53.8468 115.954 54.5901Z" fill="white"/>
<path d="M133.586 58.6371H131.975V50.5435H133.833V55.5813L137.426 50.5435H139.036V58.6371H137.178V53.5992L133.586 58.6371ZM133.255 48.4375H134.99C134.99 48.644 135.031 48.8091 135.155 48.8917C135.279 48.9743 135.444 49.0156 135.692 49.0156C135.939 49.0156 136.104 48.9743 136.187 48.8917C136.311 48.8091 136.352 48.644 136.352 48.4375H138.087C138.087 48.9743 137.88 49.4286 137.426 49.7589C136.972 50.0893 136.394 50.2544 135.692 50.2544C134.907 50.2544 134.329 50.0893 133.875 49.7589C133.462 49.4698 133.255 49.0156 133.255 48.4375Z" fill="white"/>
<path d="M159.146 58.6371V50.5435H161.005V54.0534L163.647 50.5435H165.877L162.822 54.2599L166.125 58.6371H163.771L161.005 54.7967V58.6371H159.146Z" fill="white"/>
<path d="M181.941 50.5435L179.215 56.7375C178.926 57.3982 178.596 57.8525 178.224 58.1828C177.853 58.5132 177.398 58.6371 176.862 58.6371C176.655 58.6371 176.407 58.5958 176.16 58.5132C175.912 58.4306 175.747 58.348 175.623 58.2654L176.284 56.6962C176.49 56.8201 176.655 56.9027 176.862 56.9027C177.151 56.9027 177.357 56.7788 177.481 56.5724L177.605 56.3246L174.136 50.5435H176.242L178.513 54.5077L180.165 50.5435H181.941Z" fill="white"/>
<path d="M192.801 58.6371H190.943V50.5435C191.067 50.5435 191.48 50.5435 192.099 50.5435C192.76 50.5435 193.173 50.5435 193.421 50.5435C194.577 50.5435 195.403 50.7912 195.898 51.2867C196.435 51.7823 196.683 52.443 196.683 53.2276C196.683 53.9708 196.394 54.6316 195.857 55.1684C195.32 55.7052 194.577 55.953 193.668 55.953C193.255 55.953 192.966 55.953 192.76 55.9117V58.6371H192.801ZM193.627 52.2365C193.586 52.2365 193.338 52.2365 192.801 52.2778V54.136C193.09 54.1773 193.379 54.1773 193.627 54.1773C193.916 54.1773 194.164 54.0947 194.37 53.9296C194.577 53.7644 194.701 53.5166 194.701 53.1863C194.742 52.5669 194.37 52.2365 193.627 52.2365Z" fill="white"/>
<path d="M205.52 54.5901C205.52 53.3926 205.932 52.4015 206.717 51.617C207.502 50.8324 208.534 50.4194 209.814 50.4194C211.053 50.4194 212.085 50.7911 212.911 51.5757C213.737 52.319 214.109 53.3513 214.109 54.6314C214.109 55.8289 213.696 56.8613 212.87 57.6459C212.044 58.4305 211.012 58.8434 209.773 58.8434C208.534 58.8434 207.502 58.4717 206.676 57.6872C205.891 56.8613 205.52 55.8289 205.52 54.5901ZM207.46 54.5901C207.46 55.2921 207.708 55.8702 208.162 56.3245C208.617 56.7787 209.153 57.0265 209.814 57.0265C210.557 57.0265 211.136 56.7787 211.548 56.3245C211.961 55.8702 212.168 55.2921 212.168 54.5488C212.168 53.8055 211.961 53.2274 211.507 52.7732C211.053 52.319 210.516 52.0712 209.855 52.0712C209.195 52.0712 208.617 52.2777 208.162 52.7319C207.708 53.2687 207.46 53.8468 207.46 54.5901Z" fill="white"/>
<path d="M225.341 58.6371H223.482V50.5435C223.606 50.5435 224.019 50.5435 224.639 50.5435C225.299 50.5435 225.712 50.5435 225.96 50.5435C227.116 50.5435 227.942 50.7912 228.438 51.2867C228.975 51.7823 229.222 52.443 229.222 53.2276C229.222 53.9708 228.933 54.6316 228.396 55.1684C227.86 55.7052 227.116 55.953 226.208 55.953C225.795 55.953 225.506 55.953 225.299 55.9117V58.6371H225.341ZM226.125 52.2365C226.084 52.2365 225.836 52.2365 225.299 52.2778V54.136C225.588 54.1773 225.877 54.1773 226.125 54.1773C226.414 54.1773 226.662 54.0947 226.869 53.9296C227.075 53.7644 227.199 53.5166 227.199 53.1863C227.24 52.5669 226.869 52.2365 226.125 52.2365Z" fill="white"/>
<path d="M237.522 52.2778V50.5435H244.212V52.2778H241.776V58.6371H239.918V52.2778H237.522Z" fill="white"/>
</g>
<defs>
<clipPath id="clip0">
<rect width="247.722" height="60" fill="white"/>
</clipPath>
</defs>
</svg>
