<svg width="50" height="44" viewBox="0 0 50 44" fill="none" xmlns="http://www.w3.org/2000/svg">
<path d="M43.5963 6.03448H34.4828V0H0V37.069C0.00205354 38.8974 0.729312 40.6504 2.02222 41.9433C3.31513 43.2362 5.0681 43.9635 6.89655 43.9655H27.5862C29.4147 43.9635 31.1676 43.2362 32.4605 41.9433C33.7534 40.6504 34.4807 38.8974 34.4828 37.069V36.2069H43.5963C45.2941 36.205 46.9218 35.5297 48.1223 34.3292C49.3228 33.1287 49.9981 31.501 50 29.8032V12.4381C49.9981 10.7404 49.3228 9.11269 48.1223 7.91218C46.9218 6.71168 45.2941 6.03639 43.5963 6.03448ZM13.9412 18.8463L17.2414 22.1467V28.3291H10.3448V22.1467L13.6452 18.8463H13.9412ZM46.5517 29.8032C46.5508 30.5868 46.2392 31.338 45.6851 31.892C45.1311 32.4461 44.3799 32.7577 43.5963 32.7586H31.0345V37.069C31.0335 37.9832 30.6698 38.8597 30.0234 39.5061C29.3769 40.1526 28.5004 40.5162 27.5862 40.5172H6.89655C5.98233 40.5162 5.10584 40.1526 4.45939 39.5061C3.81293 38.8597 3.4493 37.9832 3.44828 37.069V3.44828H12.069V15.5459L6.89655 20.7183V31.7774H20.6897V20.7183L15.5172 15.5459V3.44828H31.0345V9.48276H43.5963C44.3799 9.48364 45.1311 9.7953 45.6851 10.3493C46.2392 10.9034 46.5508 11.6546 46.5517 12.4381V29.8032Z" fill="#395A71"/>
<path d="M41.3795 12.5H31.0347V29.7414H41.3795C41.9509 29.7407 42.4987 29.5134 42.9027 29.1094C43.3067 28.7054 43.534 28.1576 43.5347 27.5862V14.6552C43.534 14.0838 43.3067 13.536 42.9027 13.132C42.4987 12.7279 41.9509 12.5007 41.3795 12.5ZM40.0864 26.2931H34.4829V15.9483H40.0864V26.2931Z" fill="#395A71"/>
</svg>
