<svg width="50" height="50" viewBox="0 0 50 50" fill="none" xmlns="http://www.w3.org/2000/svg">
<path d="M43.7074 25.648C41.9838 25.0626 40.0651 24.8187 37.9513 24.9163C35.8374 25.0138 33.7968 25.3472 31.8293 25.9163C29.8618 26.4854 27.748 27.1195 25.4878 27.8187C23.2277 28.5179 21.0813 29.1764 19.0488 29.7943C17.0163 30.4122 14.8618 30.8269 12.5854 31.0382C10.309 31.2496 8.19513 31.1602 6.24391 30.7699C4.48781 30.4122 3.00813 29.835 1.80488 29.0382C0.601627 28.2415 0 27.3878 0 26.4773C0 25.5667 0.617887 24.8838 1.85366 24.4285C3.08943 23.9732 4.55285 23.9082 6.24391 24.2334C7.64229 24.8512 9.31708 25.1114 11.2683 25.0138C13.2195 24.9163 15.187 24.583 17.1708 24.0138C19.1545 23.4447 21.3171 22.8106 23.6586 22.1114C26 21.4122 28.2602 20.7456 30.4391 20.1114C32.6179 19.4773 34.8781 19.0545 37.2196 18.8431C39.561 18.6317 41.7236 18.7212 43.7074 19.1114C45.4635 19.4691 46.9431 20.0464 48.1464 20.8431C49.3497 21.6399 49.9513 22.4773 49.9513 23.3553C49.9513 24.3309 49.309 25.0789 48.0244 25.5992C46.7399 26.1195 45.3009 26.1358 43.7074 25.648ZM43.7074 6.91628C41.9838 6.33092 40.0651 6.08701 37.9513 6.18458C35.8374 6.28214 33.7968 6.61547 31.8293 7.18458C29.8618 7.75368 27.748 8.38783 25.4878 9.08701C23.2277 9.7862 21.0813 10.4447 19.0488 11.0626C17.0163 11.6805 14.8618 12.0951 12.5854 12.3065C10.309 12.5179 8.19513 12.4285 6.24391 12.0382C4.48781 11.6805 3.00813 11.1033 1.80488 10.3065C0.601627 9.50978 0 8.65612 0 7.74555C0 6.83498 0.617887 6.15205 1.85366 5.69677C3.08943 5.24149 4.55285 5.17645 6.24391 5.50165C7.64229 6.11953 9.31708 6.3797 11.2683 6.28214C13.2195 6.18458 15.187 5.85124 17.1708 5.28214C19.1545 4.71303 21.3171 4.07888 23.6586 3.3797C26 2.68051 28.2602 2.01384 30.4391 1.3797C32.6179 0.74555 34.8781 0.322786 37.2196 0.111404C39.561 -0.099978 41.7236 -0.0105471 43.7074 0.379697C45.4635 0.73742 46.9431 1.31466 48.1464 2.1114C49.3497 2.90815 49.9513 3.74555 49.9513 4.6236C49.9513 5.59921 49.309 6.34718 48.0244 6.8675C46.7399 7.38783 45.3009 7.40409 43.7074 6.91628ZM6.24391 42.9651C7.64229 43.583 9.31708 43.8431 11.2683 43.7456C13.2195 43.648 15.187 43.3147 17.1708 42.7456C19.1545 42.1764 21.3171 41.5423 23.6586 40.8431C26 40.1439 28.2602 39.4773 30.4391 38.8431C32.6179 38.209 34.8781 37.7862 37.2196 37.5748C39.561 37.3634 41.7236 37.4529 43.7074 37.8431C45.4635 38.2008 46.9431 38.7781 48.1464 39.5748C49.3497 40.3716 49.9513 41.209 49.9513 42.087C49.9513 43.0626 49.309 43.8106 48.0244 44.3309C46.7399 44.8512 45.3009 44.8675 43.7074 44.3797C41.9838 43.7943 40.0651 43.5504 37.9513 43.648C35.8374 43.7456 33.7968 44.0789 31.8293 44.648C29.8618 45.2171 27.748 45.8512 25.4878 46.5504C23.2277 47.2496 21.0813 47.9082 19.0488 48.526C17.0163 49.1439 14.8618 49.5586 12.5854 49.7699C10.309 49.9813 8.19513 49.8919 6.24391 49.5017C4.48781 49.1439 3.00813 48.5667 1.80488 47.7699C0.601627 46.9732 0 46.1195 0 45.209C0 44.2984 0.617887 43.6155 1.85366 43.1602C3.08943 42.7049 4.55285 42.6399 6.24391 42.9651Z" fill="#395A71"/>
</svg>
