<svg width="33" height="50" viewBox="0 0 33 50" fill="none" xmlns="http://www.w3.org/2000/svg">
<path d="M10 4.66731L12.0978 25.0603C11.439 25.5377 10.9109 26.1273 10.549 26.7893C10.1871 27.4513 9.99986 28.1703 10 28.8978C10 31.7152 12.7404 34 16.12 34C19.4996 34 22.24 31.7152 22.24 28.8978C22.2401 28.1705 22.053 27.4517 21.6913 26.7898C21.3297 26.1279 20.8019 25.5384 20.1436 25.0609L22.24 4.66731C22.24 -1.55577 10 -1.55577 10 4.66731ZM20.7107 28.8978C20.7108 29.4002 20.5921 29.8978 20.3614 30.362C20.1308 30.8262 19.7927 31.2481 19.3664 31.6034C18.9401 31.9587 18.434 32.2406 17.877 32.433C17.32 32.6253 16.7229 32.7244 16.12 32.7244C14.9025 32.724 13.7351 32.3206 12.8745 31.603C12.0139 30.8854 11.5305 29.9123 11.5307 28.8978C11.531 28.2407 11.7347 27.5947 12.1221 27.0224C12.5095 26.45 13.0674 25.9706 13.742 25.6304L13.6666 24.3945H12.8798L12.8397 23.5519H13.6149L13.5204 22.0032H12.6466L12.6037 21.1617H13.468L13.3728 19.613H12.3276L12.28 18.7704H13.3211L13.2259 17.2223H12.1964L12.1474 16.3808H13.1742L13.079 14.831H12.0386L11.9876 13.9895H13.028L12.4473 4.53925C12.4473 0.931875 19.7913 0.931875 19.7913 4.53925L18.4986 25.6304C19.1734 25.9706 19.7314 26.45 20.1189 27.0223C20.5064 27.5947 20.7102 28.2406 20.7107 28.8978Z" fill="#395A71"/>
<path d="M17.6854 25.9902L18.5687 10.9794C18.5687 10.6014 17.4732 10.2954 16.12 10.2954C14.7689 10.2954 13.6713 10.6014 13.6713 10.9794L13.8495 13.9883H15.3054L15.3564 14.8298H13.8985L13.9903 16.3797H15.3292L15.3781 17.2212H14.0392L14.131 18.7693H15.3346L15.3822 19.6119H14.18L14.2711 21.1606H15.3598L15.4026 22.0021H14.3214L14.4125 23.5508H15.387L15.4271 24.3934H14.4629L14.5567 25.9885C13.9289 26.2231 13.3886 26.5944 12.9927 27.0634C12.5969 27.5324 12.3602 28.0817 12.3076 28.6534C12.255 29.2251 12.3884 29.798 12.6938 30.3118C12.9991 30.8256 13.4652 31.2613 14.0428 31.5729C14.6204 31.8845 15.2881 32.0604 15.9757 32.0823C16.6632 32.1041 17.3451 31.971 17.9495 31.697C18.5539 31.423 19.0584 31.0181 19.4098 30.5252C19.7612 30.0323 19.9466 29.4695 19.9464 28.8961C19.9453 28.2817 19.7313 27.6807 19.3302 27.1653C18.9292 26.6498 18.358 26.2418 17.6854 25.9902Z" fill="#395A71"/>
<path d="M2.30273 41.9844H3.20508C3.63477 41.9844 3.95312 41.877 4.16016 41.6621C4.36719 41.4473 4.4707 41.1621 4.4707 40.8066C4.4707 40.4629 4.36719 40.1953 4.16016 40.0039C3.95703 39.8125 3.67578 39.7168 3.31641 39.7168C2.99219 39.7168 2.7207 39.8066 2.50195 39.9863C2.2832 40.1621 2.17383 40.3926 2.17383 40.6777H0.480469C0.480469 40.2324 0.599609 39.834 0.837891 39.4824C1.08008 39.127 1.41602 38.8496 1.8457 38.6504C2.2793 38.4512 2.75586 38.3516 3.27539 38.3516C4.17773 38.3516 4.88477 38.5684 5.39648 39.002C5.9082 39.4316 6.16406 40.0254 6.16406 40.7832C6.16406 41.1738 6.04492 41.5332 5.80664 41.8613C5.56836 42.1895 5.25586 42.4414 4.86914 42.6172C5.34961 42.7891 5.70703 43.0469 5.94141 43.3906C6.17969 43.7344 6.29883 44.1406 6.29883 44.6094C6.29883 45.3672 6.02148 45.9746 5.4668 46.4316C4.91602 46.8887 4.18555 47.1172 3.27539 47.1172C2.42383 47.1172 1.72656 46.8926 1.18359 46.4434C0.644531 45.9941 0.375 45.4004 0.375 44.6621H2.06836C2.06836 44.9824 2.1875 45.2441 2.42578 45.4473C2.66797 45.6504 2.96484 45.752 3.31641 45.752C3.71875 45.752 4.0332 45.6465 4.25977 45.4355C4.49023 45.2207 4.60547 44.9375 4.60547 44.5859C4.60547 43.7344 4.13672 43.3086 3.19922 43.3086H2.30273V41.9844ZM13.2129 43.4727C13.2129 44.6523 12.9688 45.5547 12.4805 46.1797C11.9922 46.8047 11.2773 47.1172 10.3359 47.1172C9.40625 47.1172 8.69531 46.8105 8.20312 46.1973C7.71094 45.584 7.45898 44.7051 7.44727 43.5605V41.9902C7.44727 40.7988 7.69336 39.8945 8.18555 39.2773C8.68164 38.6602 9.39453 38.3516 10.3242 38.3516C11.2539 38.3516 11.9648 38.6582 12.457 39.2715C12.9492 39.8809 13.2012 40.7578 13.2129 41.9023V43.4727ZM11.5195 41.75C11.5195 41.043 11.4219 40.5293 11.2266 40.209C11.0352 39.8848 10.7344 39.7227 10.3242 39.7227C9.92578 39.7227 9.63086 39.877 9.43945 40.1855C9.25195 40.4902 9.15234 40.9688 9.14062 41.6211V43.6953C9.14062 44.3906 9.23438 44.9082 9.42188 45.248C9.61328 45.584 9.91797 45.752 10.3359 45.752C10.75 45.752 11.0488 45.5898 11.2324 45.2656C11.416 44.9414 11.5117 44.4453 11.5195 43.7773V41.75ZM17.7246 44.0293H14.4258V42.6641H17.7246V44.0293ZM20.7363 41.9844H21.6387C22.0684 41.9844 22.3867 41.877 22.5938 41.6621C22.8008 41.4473 22.9043 41.1621 22.9043 40.8066C22.9043 40.4629 22.8008 40.1953 22.5938 40.0039C22.3906 39.8125 22.1094 39.7168 21.75 39.7168C21.4258 39.7168 21.1543 39.8066 20.9355 39.9863C20.7168 40.1621 20.6074 40.3926 20.6074 40.6777H18.9141C18.9141 40.2324 19.0332 39.834 19.2715 39.4824C19.5137 39.127 19.8496 38.8496 20.2793 38.6504C20.7129 38.4512 21.1895 38.3516 21.709 38.3516C22.6113 38.3516 23.3184 38.5684 23.8301 39.002C24.3418 39.4316 24.5977 40.0254 24.5977 40.7832C24.5977 41.1738 24.4785 41.5332 24.2402 41.8613C24.002 42.1895 23.6895 42.4414 23.3027 42.6172C23.7832 42.7891 24.1406 43.0469 24.375 43.3906C24.6133 43.7344 24.7324 44.1406 24.7324 44.6094C24.7324 45.3672 24.4551 45.9746 23.9004 46.4316C23.3496 46.8887 22.6191 47.1172 21.709 47.1172C20.8574 47.1172 20.1602 46.8926 19.6172 46.4434C19.0781 45.9941 18.8086 45.4004 18.8086 44.6621H20.502C20.502 44.9824 20.6211 45.2441 20.8594 45.4473C21.1016 45.6504 21.3984 45.752 21.75 45.752C22.1523 45.752 22.4668 45.6465 22.6934 45.4355C22.9238 45.2207 23.0391 44.9375 23.0391 44.5859C23.0391 43.7344 22.5703 43.3086 21.6328 43.3086H20.7363V41.9844ZM31.7051 39.418L28.4062 47H26.6191L29.9238 39.8398H25.6816V38.4688H31.7051V39.418Z" fill="#395A71"/>
</svg>
