<svg width="51" height="50" viewBox="0 0 51 50" fill="none" xmlns="http://www.w3.org/2000/svg">
<path d="M50.5273 7.5L48.303 10.85C49.6526 11.75 50.5273 13.275 50.5273 15V23.75L46.7785 25L42.9297 18.85C42.6048 18.325 41.7801 18.55 41.7801 19.175V28.125C41.7801 30.575 40.8054 32.775 39.2809 34.45V50H33.0328V37.5H32.408C31.8832 37.5 31.3583 37.425 30.8585 37.35L19.1621 35.4L16.9628 40.3L19.3871 50H12.9391L10.6398 40.75C10.4649 40.075 10.5398 39.35 10.8148 38.75L13.0391 33.75C11.9174 33.0155 10.9905 32.02 10.3376 30.8488C9.68471 29.6776 9.32533 28.3655 9.29023 27.025C9.19026 27.4 9.14028 27.95 9.21526 28.75C9.29023 29.85 9.56515 31.475 9.3902 33.275C9.29023 35.075 8.49048 36.925 7.44081 38.15C6.34116 39.375 5.16652 40.225 3.91691 40.875L2.16746 39.125C2.64231 37.95 3.11716 36.9 3.21713 35.925C3.36709 35 3.19214 34.25 2.91723 33.575L1.59264 30.75C1.0678 29.475 0.418008 27.625 0.542969 25.45C0.617945 23.325 1.79258 20.55 4.01688 19.025C6.26618 17.5 8.69042 17.275 10.6648 17.7C11.9144 17.95 13.189 18.55 14.2887 19.4C15.2134 18.975 16.288 18.75 17.4127 18.75H31.7832V17.5C31.7832 11.975 36.2568 7.5 41.7801 7.5L50.5273 0L48.0281 7.5H50.5273Z" fill="#395A71"/>
</svg>
