<svg width="51" height="50" viewBox="0 0 51 50" fill="none" xmlns="http://www.w3.org/2000/svg">
<path d="M25.5273 0C32.1578 0 38.5166 2.37053 43.205 6.5901C47.8934 10.8097 50.5273 16.5326 50.5273 22.5H28.3051V42.5C28.3051 44.4891 27.4271 46.3968 25.8643 47.8033C24.3015 49.2098 22.1819 50 19.9718 50C17.7617 50 15.642 49.2098 14.0792 47.8033C12.5164 46.3968 11.6385 44.4891 11.6385 42.5V40H17.194V42.5C17.194 43.163 17.4867 43.7989 18.0076 44.2678C18.5285 44.7366 19.2351 45 19.9718 45C20.7085 45 21.415 44.7366 21.936 44.2678C22.4569 43.7989 22.7496 43.163 22.7496 42.5V22.5H0.527344C0.527344 16.5326 3.16126 10.8097 7.84967 6.5901C12.5381 2.37053 18.8969 0 25.5273 0Z" fill="#395A71"/>
</svg>
