<svg width="51" height="50" viewBox="0 0 51 50" fill="none" xmlns="http://www.w3.org/2000/svg">
<path d="M45.5273 26.3158H35.5273C35.5273 29.2105 33.2773 31.5789 30.5273 31.5789H20.5273C17.7773 31.5789 15.5273 29.2105 15.5273 26.3158H5.52734L0.527344 39.4737V44.7368C0.527344 47.6316 2.77734 50 5.52734 50H45.5273C48.2773 50 50.5273 47.6316 50.5273 44.7368V39.4737L45.5273 26.3158ZM10.5273 44.7368C8.30234 44.7368 7.17734 41.8947 8.75234 40.2368C10.3273 38.5789 13.0273 39.7632 13.0273 42.1053C13.0273 43.5526 11.9023 44.7368 10.5273 44.7368ZM20.5273 44.7368C18.3023 44.7368 17.1773 41.8947 18.7523 40.2368C20.3273 38.5789 23.0273 39.7632 23.0273 42.1053C23.0273 43.5526 21.9023 44.7368 20.5273 44.7368ZM30.5273 44.7368C28.3023 44.7368 27.1773 41.8947 28.7523 40.2368C30.3273 38.5789 33.0273 39.7632 33.0273 42.1053C33.0273 43.5526 31.9023 44.7368 30.5273 44.7368ZM40.5273 44.7368C38.3023 44.7368 37.1773 41.8947 38.7523 40.2368C40.3273 38.5789 43.0273 39.7632 43.0273 42.1053C43.0273 43.5526 41.9023 44.7368 40.5273 44.7368ZM40.5273 18.4211V0H10.5273V18.4211H3.02734V23.6842H48.0273V18.4211H40.5273ZM15.5273 5.26316H35.5273V7.89474H15.5273V5.26316ZM15.5273 10.5263H30.5273V13.1579H15.5273" fill="#395A71"/>
</svg>
