<svg width="35" height="50" viewBox="0 0 35 50" fill="none" xmlns="http://www.w3.org/2000/svg">
<path fill-rule="evenodd" clip-rule="evenodd" d="M18.6323 2.22891C18.2575 2.20123 17.8817 2.18737 17.5059 2.18735V0C17.9358 0.000209608 18.3655 0.016261 18.7942 0.0481216L18.6323 2.22891ZM23.0158 3.21321C22.3146 2.94265 21.5945 2.72405 20.8612 2.5592L21.3403 0.424345C22.178 0.612457 23.0027 0.861814 23.8032 1.17242L23.0158 3.21321ZM26.0124 4.76623C25.6997 4.55766 25.3794 4.36067 25.0522 4.17564L26.1306 2.27265C26.8784 2.69642 27.5942 3.17455 28.272 3.70318L26.9268 5.42899C26.6302 5.19764 26.3252 4.9773 26.0124 4.76842V4.76623ZM30.024 8.68158C29.5914 8.06688 29.114 7.48493 28.5957 6.94045L30.1793 5.43118C30.7699 6.05457 31.3168 6.72172 31.8133 7.42167L30.024 8.68158ZM31.6514 11.6389C31.5079 11.2921 31.3517 10.9506 31.1833 10.6152L33.1366 9.63089C33.5229 10.3988 33.8519 11.1943 34.1209 12.0107L32.043 12.6954C31.9254 12.3385 31.7948 11.9861 31.6514 11.6389ZM32.8107 17.1225C32.793 16.3708 32.7199 15.6215 32.592 14.8805L34.7465 14.5087C34.8931 15.353 34.9784 16.2104 35.0003 17.0679L32.8129 17.1225H32.8107ZM32.5242 20.4867C32.5964 20.1148 32.6554 19.7452 32.7014 19.3711L34.8734 19.6402C34.7683 20.4936 34.6002 21.338 34.3703 22.1666L32.2617 21.5825C32.3623 21.2216 32.4498 20.8563 32.5242 20.4867ZM30.4418 25.6904C30.8443 25.0561 31.1986 24.3911 31.5049 23.7043L33.5041 24.5901C33.1541 25.3776 32.7495 26.1344 32.2901 26.8606L30.4418 25.6904ZM28.3332 28.3261C28.6001 28.0593 28.856 27.7837 29.0988 27.4993L30.7568 28.9277C30.476 29.2532 30.1835 29.5684 29.8797 29.8726L28.3332 28.3261Z" fill="#395A71"/>
<path fill-rule="evenodd" clip-rule="evenodd" d="M17.5056 2.18735C14.9877 2.18753 12.5087 2.80866 10.2882 3.99571C8.06767 5.18277 6.17416 6.89911 4.77537 8.99273C3.37659 11.0863 2.51571 13.4926 2.26897 15.9984C2.02224 18.5042 2.39728 21.0321 3.36086 23.3583C4.32444 25.6846 5.84683 27.7373 7.79319 29.3346C9.73954 30.932 12.0498 32.0247 14.5193 32.5159C16.9888 33.0072 19.5414 32.8819 21.9509 32.1511C24.3604 31.4202 26.5525 30.1065 28.333 28.3261L29.8794 29.8726C27.8446 31.9085 25.339 33.4111 22.5847 34.2473C19.8304 35.0834 16.9123 35.2273 14.0891 34.6661C11.2659 34.105 8.62467 32.8561 6.39946 31.0302C4.17425 29.2043 2.43377 26.8577 1.33222 24.1984C0.230672 21.539 -0.197933 18.6491 0.0843832 15.7845C0.366699 12.9199 1.35122 10.1692 2.95071 7.77606C4.5502 5.38292 6.71528 3.42125 9.25412 2.06486C11.793 0.708471 14.6272 -0.000762798 17.5056 6.15647e-07V2.18735Z" fill="#395A71"/>
<path fill-rule="evenodd" clip-rule="evenodd" d="M16.412 6.56204C16.7021 6.56204 16.9803 6.67727 17.1854 6.88237C17.3905 7.08748 17.5057 7.36566 17.5057 7.65572V19.0518L24.6102 23.1115C24.8547 23.259 25.0319 23.4963 25.1037 23.7727C25.1756 24.0491 25.1365 24.3426 24.9948 24.5906C24.8532 24.8385 24.6201 25.0212 24.3455 25.0996C24.0709 25.178 23.7765 25.1459 23.5253 25.0101L15.8696 20.6354C15.7022 20.5398 15.563 20.4017 15.4662 20.2349C15.3694 20.0682 15.3184 19.8789 15.3184 19.6861V7.65572C15.3184 7.36566 15.4336 7.08748 15.6387 6.88237C15.8438 6.67727 16.122 6.56204 16.412 6.56204Z" fill="#395A71"/>
<path d="M3.83203 42.8047L4.32422 38.4688H9.10547V39.8809H5.71289L5.50195 41.7148C5.9043 41.5 6.33203 41.3926 6.78516 41.3926C7.59766 41.3926 8.23438 41.6445 8.69531 42.1484C9.15625 42.6523 9.38672 43.3574 9.38672 44.2637C9.38672 44.8145 9.26953 45.3086 9.03516 45.7461C8.80469 46.1797 8.47266 46.5176 8.03906 46.7598C7.60547 46.998 7.09375 47.1172 6.50391 47.1172C5.98828 47.1172 5.50977 47.0137 5.06836 46.8066C4.62695 46.5957 4.27734 46.3008 4.01953 45.9219C3.76562 45.543 3.63086 45.1113 3.61523 44.627H5.29102C5.32617 44.9824 5.44922 45.2598 5.66016 45.459C5.875 45.6543 6.1543 45.752 6.49805 45.752C6.88086 45.752 7.17578 45.6152 7.38281 45.3418C7.58984 45.0645 7.69336 44.6738 7.69336 44.1699C7.69336 43.6855 7.57422 43.3145 7.33594 43.0566C7.09766 42.7988 6.75977 42.6699 6.32227 42.6699C5.91992 42.6699 5.59375 42.7754 5.34375 42.9863L5.17969 43.1387L3.83203 42.8047ZM13.834 44.0293H10.5352V42.6641H13.834V44.0293ZM19.2363 47H17.543V40.4727L15.5215 41.0996V39.7227L19.0547 38.457H19.2363V47ZM22.2656 42.8047L22.7578 38.4688H27.5391V39.8809H24.1465L23.9355 41.7148C24.3379 41.5 24.7656 41.3926 25.2188 41.3926C26.0312 41.3926 26.668 41.6445 27.1289 42.1484C27.5898 42.6523 27.8203 43.3574 27.8203 44.2637C27.8203 44.8145 27.7031 45.3086 27.4688 45.7461C27.2383 46.1797 26.9062 46.5176 26.4727 46.7598C26.0391 46.998 25.5273 47.1172 24.9375 47.1172C24.4219 47.1172 23.9434 47.0137 23.502 46.8066C23.0605 46.5957 22.7109 46.3008 22.4531 45.9219C22.1992 45.543 22.0645 45.1113 22.0488 44.627H23.7246C23.7598 44.9824 23.8828 45.2598 24.0938 45.459C24.3086 45.6543 24.5879 45.752 24.9316 45.752C25.3145 45.752 25.6094 45.6152 25.8164 45.3418C26.0234 45.0645 26.127 44.6738 26.127 44.1699C26.127 43.6855 26.0078 43.3145 25.7695 43.0566C25.5312 42.7988 25.1934 42.6699 24.7559 42.6699C24.3535 42.6699 24.0273 42.7754 23.7773 42.9863L23.6133 43.1387L22.2656 42.8047ZM29.4609 41.0879L28.6641 40.625C29 40.0977 29.1738 39.5527 29.1855 38.9902V38H30.5332V38.9082C30.5332 39.2598 30.4355 39.6406 30.2402 40.0508C30.0449 40.4609 29.7852 40.8066 29.4609 41.0879Z" fill="#395A71"/>
</svg>
