<svg width="36" height="50" viewBox="0 0 36 50" fill="none" xmlns="http://www.w3.org/2000/svg">
<path fill-rule="evenodd" clip-rule="evenodd" d="M18.6321 2.22891C18.2572 2.20123 17.8815 2.18737 17.5056 2.18735V0C17.9355 0.000209608 18.3652 0.016261 18.794 0.0481216L18.6321 2.22891ZM23.0155 3.21321C22.3144 2.94265 21.5943 2.72405 20.861 2.5592L21.34 0.424345C22.1778 0.612457 23.0024 0.861814 23.803 1.17242L23.0155 3.21321ZM26.0122 4.76623C25.6995 4.55766 25.3792 4.36067 25.052 4.17564L26.1303 2.27265C26.8782 2.69642 27.5939 3.17455 28.2717 3.70318L26.9265 5.42899C26.63 5.19764 26.325 4.9773 26.0122 4.76842V4.76623ZM30.0238 8.68158C29.5911 8.06688 29.1137 7.48493 28.5955 6.94045L30.1791 5.43118C30.7697 6.05457 31.3165 6.72172 31.813 7.42167L30.0238 8.68158ZM31.6512 11.6389C31.5076 11.2921 31.3515 10.9506 31.1831 10.6152L33.1364 9.63089C33.5227 10.3988 33.8517 11.1943 34.1207 12.0107L32.0427 12.6954C31.9252 12.3385 31.7946 11.9861 31.6512 11.6389ZM32.8105 17.1225C32.7928 16.3708 32.7197 15.6215 32.5917 14.8805L34.7463 14.5087C34.8928 15.353 34.9781 16.2104 35 17.0679L32.8127 17.1225H32.8105ZM32.5239 20.4867C32.5961 20.1148 32.6552 19.7452 32.7011 19.3711L34.8731 19.6402C34.7681 20.4936 34.5999 21.338 34.3701 22.1666L32.2615 21.5825C32.3621 21.2216 32.4496 20.8563 32.5239 20.4867ZM30.4416 25.6904C30.8441 25.0561 31.1984 24.3911 31.5046 23.7043L33.5039 24.5901C33.1539 25.3776 32.7492 26.1344 32.2899 26.8606L30.4416 25.6904ZM28.333 28.3261C28.5998 28.0593 28.8558 27.7837 29.0986 27.4993L30.7566 28.9277C30.4758 29.2532 30.1832 29.5684 29.8794 29.8726L28.333 28.3261Z" fill="#395A71"/>
<path fill-rule="evenodd" clip-rule="evenodd" d="M17.5056 2.18735C14.9877 2.18753 12.5087 2.80866 10.2882 3.99571C8.06767 5.18277 6.17416 6.89911 4.77537 8.99273C3.37659 11.0863 2.51571 13.4926 2.26897 15.9984C2.02224 18.5042 2.39728 21.0321 3.36086 23.3583C4.32444 25.6846 5.84683 27.7373 7.79319 29.3346C9.73954 30.932 12.0498 32.0247 14.5193 32.5159C16.9888 33.0072 19.5414 32.8819 21.9509 32.1511C24.3604 31.4202 26.5525 30.1065 28.333 28.3261L29.8794 29.8726C27.8446 31.9085 25.339 33.4111 22.5847 34.2473C19.8304 35.0834 16.9123 35.2273 14.0891 34.6661C11.2659 34.105 8.62467 32.8561 6.39946 31.0302C4.17425 29.2043 2.43377 26.8577 1.33222 24.1984C0.230672 21.539 -0.197933 18.6491 0.0843832 15.7845C0.366699 12.9199 1.35122 10.1692 2.95071 7.77606C4.5502 5.38292 6.71528 3.42125 9.25412 2.06486C11.793 0.708471 14.6272 -0.000762798 17.5056 6.15647e-07V2.18735Z" fill="#395A71"/>
<path fill-rule="evenodd" clip-rule="evenodd" d="M16.4119 6.56204C16.702 6.56204 16.9802 6.67727 17.1853 6.88237C17.3904 7.08748 17.5056 7.36566 17.5056 7.65572V19.0518L24.6101 23.1115C24.8546 23.259 25.0318 23.4963 25.1037 23.7727C25.1755 24.0491 25.1364 24.3426 24.9948 24.5906C24.8531 24.8385 24.62 25.0212 24.3454 25.0996C24.0708 25.178 23.7764 25.1459 23.5252 25.0101L15.8695 20.6354C15.7021 20.5398 15.5629 20.4017 15.4661 20.2349C15.3693 20.0682 15.3183 19.8789 15.3183 19.6861V7.65572C15.3183 7.36566 15.4335 7.08748 15.6386 6.88237C15.8437 6.67727 16.1219 6.56204 16.4119 6.56204Z" fill="#395A71"/>
<path d="M7.42773 47H1.58008V45.8398L4.33984 42.8984C4.71875 42.4844 4.99805 42.123 5.17773 41.8145C5.36133 41.5059 5.45312 41.2129 5.45312 40.9355C5.45312 40.5566 5.35742 40.2598 5.16602 40.0449C4.97461 39.8262 4.70117 39.7168 4.3457 39.7168C3.96289 39.7168 3.66016 39.8496 3.4375 40.1152C3.21875 40.377 3.10938 40.7227 3.10938 41.1523H1.41016C1.41016 40.6328 1.5332 40.1582 1.7793 39.7285C2.0293 39.2988 2.38086 38.9629 2.83398 38.7207C3.28711 38.4746 3.80078 38.3516 4.375 38.3516C5.25391 38.3516 5.93555 38.5625 6.41992 38.9844C6.9082 39.4062 7.15234 40.002 7.15234 40.7715C7.15234 41.1934 7.04297 41.623 6.82422 42.0605C6.60547 42.498 6.23047 43.0078 5.69922 43.5898L3.75977 45.6348H7.42773V47ZM14.2129 43.4727C14.2129 44.6523 13.9688 45.5547 13.4805 46.1797C12.9922 46.8047 12.2773 47.1172 11.3359 47.1172C10.4062 47.1172 9.69531 46.8105 9.20312 46.1973C8.71094 45.584 8.45898 44.7051 8.44727 43.5605V41.9902C8.44727 40.7988 8.69336 39.8945 9.18555 39.2773C9.68164 38.6602 10.3945 38.3516 11.3242 38.3516C12.2539 38.3516 12.9648 38.6582 13.457 39.2715C13.9492 39.8809 14.2012 40.7578 14.2129 41.9023V43.4727ZM12.5195 41.75C12.5195 41.043 12.4219 40.5293 12.2266 40.209C12.0352 39.8848 11.7344 39.7227 11.3242 39.7227C10.9258 39.7227 10.6309 39.877 10.4395 40.1855C10.252 40.4902 10.1523 40.9688 10.1406 41.6211V43.6953C10.1406 44.3906 10.2344 44.9082 10.4219 45.248C10.6133 45.584 10.918 45.752 11.3359 45.752C11.75 45.752 12.0488 45.5898 12.2324 45.2656C12.416 44.9414 12.5117 44.4453 12.5195 43.7773V41.75ZM18.7246 44.0293H15.4258V42.6641H18.7246V44.0293ZM21.7363 41.9844H22.6387C23.0684 41.9844 23.3867 41.877 23.5938 41.6621C23.8008 41.4473 23.9043 41.1621 23.9043 40.8066C23.9043 40.4629 23.8008 40.1953 23.5938 40.0039C23.3906 39.8125 23.1094 39.7168 22.75 39.7168C22.4258 39.7168 22.1543 39.8066 21.9355 39.9863C21.7168 40.1621 21.6074 40.3926 21.6074 40.6777H19.9141C19.9141 40.2324 20.0332 39.834 20.2715 39.4824C20.5137 39.127 20.8496 38.8496 21.2793 38.6504C21.7129 38.4512 22.1895 38.3516 22.709 38.3516C23.6113 38.3516 24.3184 38.5684 24.8301 39.002C25.3418 39.4316 25.5977 40.0254 25.5977 40.7832C25.5977 41.1738 25.4785 41.5332 25.2402 41.8613C25.002 42.1895 24.6895 42.4414 24.3027 42.6172C24.7832 42.7891 25.1406 43.0469 25.375 43.3906C25.6133 43.7344 25.7324 44.1406 25.7324 44.6094C25.7324 45.3672 25.4551 45.9746 24.9004 46.4316C24.3496 46.8887 23.6191 47.1172 22.709 47.1172C21.8574 47.1172 21.1602 46.8926 20.6172 46.4434C20.0781 45.9941 19.8086 45.4004 19.8086 44.6621H21.502C21.502 44.9824 21.6211 45.2441 21.8594 45.4473C22.1016 45.6504 22.3984 45.752 22.75 45.752C23.1523 45.752 23.4668 45.6465 23.6934 45.4355C23.9238 45.2207 24.0391 44.9375 24.0391 44.5859C24.0391 43.7344 23.5703 43.3086 22.6328 43.3086H21.7363V41.9844ZM32.6465 43.4727C32.6465 44.6523 32.4023 45.5547 31.9141 46.1797C31.4258 46.8047 30.7109 47.1172 29.7695 47.1172C28.8398 47.1172 28.1289 46.8105 27.6367 46.1973C27.1445 45.584 26.8926 44.7051 26.8809 43.5605V41.9902C26.8809 40.7988 27.127 39.8945 27.6191 39.2773C28.1152 38.6602 28.8281 38.3516 29.7578 38.3516C30.6875 38.3516 31.3984 38.6582 31.8906 39.2715C32.3828 39.8809 32.6348 40.7578 32.6465 41.9023V43.4727ZM30.9531 41.75C30.9531 41.043 30.8555 40.5293 30.6602 40.209C30.4688 39.8848 30.168 39.7227 29.7578 39.7227C29.3594 39.7227 29.0645 39.877 28.873 40.1855C28.6855 40.4902 28.5859 40.9688 28.5742 41.6211V43.6953C28.5742 44.3906 28.668 44.9082 28.8555 45.248C29.0469 45.584 29.3516 45.752 29.7695 45.752C30.1836 45.752 30.4824 45.5898 30.666 45.2656C30.8496 44.9414 30.9453 44.4453 30.9531 43.7773V41.75ZM34.3516 41.0879L33.5547 40.625C33.8906 40.0977 34.0645 39.5527 34.0762 38.9902V38H35.4238V38.9082C35.4238 39.2598 35.3262 39.6406 35.1309 40.0508C34.9355 40.4609 34.6758 40.8066 34.3516 41.0879Z" fill="#395A71"/>
</svg>
