<svg width="40" height="40" viewBox="0 0 40 40" fill="none" xmlns="http://www.w3.org/2000/svg">
<path fill-rule="evenodd" clip-rule="evenodd" d="M20 40C14.6957 40 9.60859 37.8929 5.85786 34.1421C2.10713 30.3914 -1.10609e-06 25.3043 -8.74228e-07 20C-6.42368e-07 14.6957 2.10714 9.60859 5.85786 5.85786C9.60859 2.10714 14.6957 -1.10609e-06 20 -8.74228e-07C25.3043 -6.42368e-07 30.3914 2.10714 34.1421 5.85786C37.8929 9.60859 40 14.6957 40 20C40 25.3043 37.8929 30.3914 34.1421 34.1421C30.3914 37.8929 25.3043 40 20 40ZM27.5 21.25C27.8315 21.25 28.3839 20.8839 28.3839 20.8839L28.75 20L28.3839 19.1161L27.5 18.75L15.5175 18.75L20.885 13.385C21.0012 13.2688 21.0934 13.1308 21.1563 12.979C21.2192 12.8271 21.2516 12.6644 21.2516 12.5C21.2516 12.3356 21.2192 12.1729 21.1563 12.021C21.0934 11.8692 21.0012 11.7312 20.885 11.615C20.7688 11.4988 20.6308 11.4066 20.479 11.3437C20.3271 11.2808 20.1644 11.2484 20 11.2484C19.8356 11.2484 19.6729 11.2808 19.521 11.3437C19.3692 11.4066 19.2312 11.4988 19.115 11.615L11.615 19.115C11.4986 19.2311 11.4062 19.3691 11.3432 19.5209C11.2802 19.6728 11.2478 19.8356 11.2478 20C11.2478 20.1644 11.2802 20.3272 11.3432 20.4791C11.4062 20.6309 11.4986 20.7689 11.615 20.885L19.115 28.385C19.3497 28.6197 19.6681 28.7516 20 28.7516C20.3319 28.7516 20.6503 28.6197 20.885 28.385C21.1197 28.1503 21.2516 27.8319 21.2516 27.5C21.2516 27.1681 21.1197 26.8497 20.885 26.615L15.5175 21.25L27.5 21.25Z" fill="white"/>
</svg>
