<svg width="35" height="50" viewBox="0 0 35 50" fill="none" xmlns="http://www.w3.org/2000/svg">
<path fill-rule="evenodd" clip-rule="evenodd" d="M18.6323 2.22891C18.2575 2.20123 17.8817 2.18737 17.5059 2.18735V0C17.9358 0.000209608 18.3655 0.016261 18.7942 0.0481216L18.6323 2.22891ZM23.0158 3.21321C22.3146 2.94265 21.5945 2.72405 20.8612 2.5592L21.3403 0.424345C22.178 0.612457 23.0027 0.861814 23.8032 1.17242L23.0158 3.21321ZM26.0124 4.76623C25.6997 4.55766 25.3794 4.36067 25.0522 4.17564L26.1306 2.27265C26.8784 2.69642 27.5942 3.17455 28.272 3.70318L26.9268 5.42899C26.6302 5.19764 26.3252 4.9773 26.0124 4.76842V4.76623ZM30.024 8.68158C29.5914 8.06688 29.114 7.48493 28.5957 6.94045L30.1793 5.43118C30.7699 6.05457 31.3168 6.72172 31.8133 7.42167L30.024 8.68158ZM31.6514 11.6389C31.5079 11.2921 31.3517 10.9506 31.1833 10.6152L33.1366 9.63089C33.5229 10.3988 33.8519 11.1943 34.1209 12.0107L32.043 12.6954C31.9254 12.3385 31.7948 11.9861 31.6514 11.6389ZM32.8107 17.1225C32.793 16.3708 32.7199 15.6215 32.592 14.8805L34.7465 14.5087C34.8931 15.353 34.9784 16.2104 35.0003 17.0679L32.8129 17.1225H32.8107ZM32.5242 20.4867C32.5964 20.1148 32.6554 19.7452 32.7014 19.3711L34.8734 19.6402C34.7683 20.4936 34.6002 21.338 34.3703 22.1666L32.2617 21.5825C32.3623 21.2216 32.4498 20.8563 32.5242 20.4867ZM30.4418 25.6904C30.8443 25.0561 31.1986 24.3911 31.5049 23.7043L33.5041 24.5901C33.1541 25.3776 32.7495 26.1344 32.2901 26.8606L30.4418 25.6904ZM28.3332 28.3261C28.6001 28.0593 28.856 27.7837 29.0988 27.4993L30.7568 28.9277C30.476 29.2532 30.1835 29.5684 29.8797 29.8726L28.3332 28.3261Z" fill="#395A71"/>
<path fill-rule="evenodd" clip-rule="evenodd" d="M17.5056 2.18735C14.9877 2.18753 12.5087 2.80866 10.2882 3.99571C8.06767 5.18277 6.17416 6.89911 4.77537 8.99273C3.37659 11.0863 2.51571 13.4926 2.26897 15.9984C2.02224 18.5042 2.39728 21.0321 3.36086 23.3583C4.32444 25.6846 5.84683 27.7373 7.79319 29.3346C9.73954 30.932 12.0498 32.0247 14.5193 32.5159C16.9888 33.0072 19.5414 32.8819 21.9509 32.1511C24.3604 31.4202 26.5525 30.1065 28.333 28.3261L29.8794 29.8726C27.8446 31.9085 25.339 33.4111 22.5847 34.2473C19.8304 35.0834 16.9123 35.2273 14.0891 34.6661C11.2659 34.105 8.62467 32.8561 6.39946 31.0302C4.17425 29.2043 2.43377 26.8577 1.33222 24.1984C0.230672 21.539 -0.197933 18.6491 0.0843832 15.7845C0.366699 12.9199 1.35122 10.1692 2.95071 7.77606C4.5502 5.38292 6.71528 3.42125 9.25412 2.06486C11.793 0.708471 14.6272 -0.000762798 17.5056 6.15647e-07V2.18735Z" fill="#395A71"/>
<path fill-rule="evenodd" clip-rule="evenodd" d="M16.412 6.56204C16.7021 6.56204 16.9803 6.67727 17.1854 6.88237C17.3905 7.08748 17.5057 7.36566 17.5057 7.65572V19.0518L24.6102 23.1115C24.8547 23.259 25.0319 23.4963 25.1037 23.7727C25.1756 24.0491 25.1365 24.3426 24.9948 24.5906C24.8532 24.8385 24.6201 25.0212 24.3455 25.0996C24.0709 25.178 23.7765 25.1459 23.5253 25.0101L15.8696 20.6354C15.7022 20.5398 15.563 20.4017 15.4662 20.2349C15.3694 20.0682 15.3184 19.8789 15.3184 19.6861V7.65572C15.3184 7.36566 15.4336 7.08748 15.6387 6.88237C15.8438 6.67727 16.122 6.56204 16.412 6.56204Z" fill="#395A71"/>
<path d="M19.4277 47H13.5801V45.8398L16.3398 42.8984C16.7188 42.4844 16.998 42.123 17.1777 41.8145C17.3613 41.5059 17.4531 41.2129 17.4531 40.9355C17.4531 40.5566 17.3574 40.2598 17.166 40.0449C16.9746 39.8262 16.7012 39.7168 16.3457 39.7168C15.9629 39.7168 15.6602 39.8496 15.4375 40.1152C15.2188 40.377 15.1094 40.7227 15.1094 41.1523H13.4102C13.4102 40.6328 13.5332 40.1582 13.7793 39.7285C14.0293 39.2988 14.3809 38.9629 14.834 38.7207C15.2871 38.4746 15.8008 38.3516 16.375 38.3516C17.2539 38.3516 17.9355 38.5625 18.4199 38.9844C18.9082 39.4062 19.1523 40.002 19.1523 40.7715C19.1523 41.1934 19.043 41.623 18.8242 42.0605C18.6055 42.498 18.2305 43.0078 17.6992 43.5898L15.7598 45.6348H19.4277V47ZM21.0273 41.0879L20.2305 40.625C20.5664 40.0977 20.7402 39.5527 20.752 38.9902V38H22.0996V38.9082C22.0996 39.2598 22.002 39.6406 21.8066 40.0508C21.6113 40.4609 21.3516 40.8066 21.0273 41.0879Z" fill="#395A71"/>
</svg>
