<svg width="37" height="50" viewBox="0 0 37 50" fill="none" xmlns="http://www.w3.org/2000/svg">
<path d="M28.1978 25.3447C28.1978 28.3262 27.6449 30.9647 26.5391 33.2603C25.4333 35.5558 23.8586 37.3265 21.8149 38.5723C19.7853 39.804 17.4688 40.4199 14.8652 40.4199C12.2617 40.4199 9.95215 39.825 7.93652 38.6353C5.9209 37.4315 4.34619 35.7168 3.2124 33.4912C2.09261 31.2656 1.50472 28.7111 1.44873 25.8276V24.106C1.44873 21.1105 1.99463 18.472 3.08643 16.1904C4.19222 13.8949 5.76693 12.1242 7.81055 10.8784C9.86816 9.63265 12.2057 9.00977 14.8232 9.00977C17.4128 9.00977 19.7223 9.62565 21.752 10.8574C23.7816 12.0892 25.3563 13.8459 26.4761 16.1274C27.6099 18.395 28.1838 20.9985 28.1978 23.938V25.3447ZM20.7021 24.064C20.7021 21.0265 20.1912 18.724 19.1694 17.1562C18.1616 15.5745 16.7129 14.7837 14.8232 14.7837C11.1279 14.7837 9.17529 17.5552 8.96533 23.0981L8.94434 25.3447C8.94434 28.3402 9.44124 30.6427 10.4351 32.2524C11.4289 33.8621 12.9056 34.667 14.8652 34.667C16.7269 34.667 18.1616 33.8761 19.1694 32.2944C20.1772 30.7127 20.6882 28.4382 20.7021 25.4707V24.064Z" fill="#395A71"/>
<path d="M35.9351 11H30.478V9.81836L32.9917 7.17578C33.6112 6.47038 33.9209 5.90999 33.9209 5.49463C33.9209 5.15804 33.8475 4.90202 33.7007 4.72656C33.5539 4.55111 33.3408 4.46338 33.0615 4.46338C32.7858 4.46338 32.562 4.58154 32.3901 4.81787C32.2183 5.05062 32.1323 5.34245 32.1323 5.69336H30.3169C30.3169 5.21354 30.4368 4.77132 30.6768 4.3667C30.9167 3.9585 31.2497 3.63981 31.6758 3.41064C32.1019 3.18148 32.5781 3.06689 33.1045 3.06689C33.9495 3.06689 34.5994 3.26204 35.0542 3.65234C35.5125 4.04264 35.7417 4.60303 35.7417 5.3335C35.7417 5.64144 35.6844 5.94222 35.5698 6.23584C35.4552 6.52588 35.2762 6.83203 35.0327 7.1543C34.7928 7.47298 34.4043 7.90088 33.8672 8.43799L32.8574 9.60352H35.9351V11Z" fill="#395A71"/>
</svg>
