<svg width="33" height="50" viewBox="0 0 33 50" fill="none" xmlns="http://www.w3.org/2000/svg">
<path d="M10 4.66731L12.0978 25.0603C11.439 25.5377 10.9109 26.1273 10.549 26.7893C10.1871 27.4513 9.99986 28.1703 10 28.8978C10 31.7152 12.7404 34 16.12 34C19.4996 34 22.24 31.7152 22.24 28.8978C22.2401 28.1705 22.053 27.4517 21.6913 26.7898C21.3297 26.1279 20.8019 25.5384 20.1436 25.0609L22.24 4.66731C22.24 -1.55577 10 -1.55577 10 4.66731ZM20.7107 28.8978C20.7108 29.4002 20.5921 29.8978 20.3614 30.362C20.1308 30.8262 19.7927 31.2481 19.3664 31.6034C18.9401 31.9587 18.434 32.2406 17.877 32.433C17.32 32.6253 16.7229 32.7244 16.12 32.7244C14.9025 32.724 13.7351 32.3206 12.8745 31.603C12.0139 30.8854 11.5305 29.9123 11.5307 28.8978C11.531 28.2407 11.7347 27.5947 12.1221 27.0224C12.5095 26.45 13.0674 25.9706 13.742 25.6304L13.6666 24.3945H12.8798L12.8397 23.5519H13.6149L13.5204 22.0032H12.6466L12.6037 21.1617H13.468L13.3728 19.613H12.3276L12.28 18.7704H13.3211L13.2259 17.2223H12.1964L12.1474 16.3808H13.1742L13.079 14.831H12.0386L11.9876 13.9895H13.028L12.4473 4.53925C12.4473 0.931875 19.7913 0.931875 19.7913 4.53925L18.4986 25.6304C19.1734 25.9706 19.7314 26.45 20.1189 27.0223C20.5064 27.5947 20.7102 28.2406 20.7107 28.8978Z" fill="#395A71"/>
<path d="M17.6854 25.9902L18.5687 10.9794C18.5687 10.6014 17.4732 10.2954 16.12 10.2954C14.7689 10.2954 13.6713 10.6014 13.6713 10.9794L13.8495 13.9883H15.3054L15.3564 14.8298H13.8985L13.9903 16.3797H15.3292L15.3781 17.2212H14.0392L14.131 18.7693H15.3346L15.3822 19.6119H14.18L14.2711 21.1606H15.3598L15.4026 22.0021H14.3214L14.4125 23.5508H15.387L15.4271 24.3934H14.4629L14.5567 25.9885C13.9289 26.2231 13.3886 26.5944 12.9927 27.0634C12.5969 27.5324 12.3602 28.0817 12.3076 28.6534C12.255 29.2251 12.3884 29.798 12.6938 30.3118C12.9991 30.8256 13.4652 31.2613 14.0428 31.5729C14.6204 31.8845 15.2881 32.0604 15.9757 32.0823C16.6632 32.1041 17.3451 31.971 17.9495 31.697C18.5539 31.423 19.0584 31.0181 19.4098 30.5252C19.7612 30.0323 19.9466 29.4695 19.9464 28.8961C19.9453 28.2817 19.7313 27.6807 19.3302 27.1653C18.9292 26.6498 18.358 26.2418 17.6854 25.9902Z" fill="#395A71"/>
<path d="M5.58984 43.7891H6.55664V45.1543H5.58984V47H3.89648V45.1543H0.398438L0.322266 44.0879L3.87891 38.4688H5.58984V43.7891ZM2.00977 43.7891H3.89648V40.7773L3.78516 40.9707L2.00977 43.7891ZM13.2129 43.4727C13.2129 44.6523 12.9688 45.5547 12.4805 46.1797C11.9922 46.8047 11.2773 47.1172 10.3359 47.1172C9.40625 47.1172 8.69531 46.8105 8.20312 46.1973C7.71094 45.584 7.45898 44.7051 7.44727 43.5605V41.9902C7.44727 40.7988 7.69336 39.8945 8.18555 39.2773C8.68164 38.6602 9.39453 38.3516 10.3242 38.3516C11.2539 38.3516 11.9648 38.6582 12.457 39.2715C12.9492 39.8809 13.2012 40.7578 13.2129 41.9023V43.4727ZM11.5195 41.75C11.5195 41.043 11.4219 40.5293 11.2266 40.209C11.0352 39.8848 10.7344 39.7227 10.3242 39.7227C9.92578 39.7227 9.63086 39.877 9.43945 40.1855C9.25195 40.4902 9.15234 40.9688 9.14062 41.6211V43.6953C9.14062 44.3906 9.23438 44.9082 9.42188 45.248C9.61328 45.584 9.91797 45.752 10.3359 45.752C10.75 45.752 11.0488 45.5898 11.2324 45.2656C11.416 44.9414 11.5117 44.4453 11.5195 43.7773V41.75ZM17.7246 44.0293H14.4258V42.6641H17.7246V44.0293ZM24.0234 43.7891H24.9902V45.1543H24.0234V47H22.3301V45.1543H18.832L18.7559 44.0879L22.3125 38.4688H24.0234V43.7891ZM20.4434 43.7891H22.3301V40.7773L22.2188 40.9707L20.4434 43.7891ZM26.1562 42.8047L26.6484 38.4688H31.4297V39.8809H28.0371L27.8262 41.7148C28.2285 41.5 28.6562 41.3926 29.1094 41.3926C29.9219 41.3926 30.5586 41.6445 31.0195 42.1484C31.4805 42.6523 31.7109 43.3574 31.7109 44.2637C31.7109 44.8145 31.5938 45.3086 31.3594 45.7461C31.1289 46.1797 30.7969 46.5176 30.3633 46.7598C29.9297 46.998 29.418 47.1172 28.8281 47.1172C28.3125 47.1172 27.834 47.0137 27.3926 46.8066C26.9512 46.5957 26.6016 46.3008 26.3438 45.9219C26.0898 45.543 25.9551 45.1113 25.9395 44.627H27.6152C27.6504 44.9824 27.7734 45.2598 27.9844 45.459C28.1992 45.6543 28.4785 45.752 28.8223 45.752C29.2051 45.752 29.5 45.6152 29.707 45.3418C29.9141 45.0645 30.0176 44.6738 30.0176 44.1699C30.0176 43.6855 29.8984 43.3145 29.6602 43.0566C29.4219 42.7988 29.084 42.6699 28.6465 42.6699C28.2441 42.6699 27.918 42.7754 27.668 42.9863L27.5039 43.1387L26.1562 42.8047Z" fill="#395A71"/>
</svg>
