<svg width="48" height="50" viewBox="0 0 48 50" fill="none" xmlns="http://www.w3.org/2000/svg">
<path d="M19.9985 15.0026C19.9985 6.2783 11.7491 0.653719 11.3991 0.428736C10.9858 0.149318 10.4982 0 9.99925 0C9.50028 0 9.01274 0.149318 8.59935 0.428736C8.24938 0.678718 0 6.37829 0 15.0026C0 17.6546 1.05349 20.198 2.92871 22.0732C4.80393 23.9484 7.34728 25.0019 9.99925 25.0019C12.6512 25.0019 15.1946 23.9484 17.0698 22.0732C18.945 20.198 19.9985 17.6546 19.9985 15.0026ZM9.99925 20.0023C8.67326 20.0023 7.40159 19.4755 6.46398 18.5379C5.52637 17.6003 4.99962 16.3286 4.99962 15.0026C5.17095 13.1976 5.70151 11.445 6.56012 9.84798C7.41872 8.25097 8.58803 6.8418 9.99925 5.70334C11.4157 6.83694 12.5887 8.24494 13.4478 9.84289C14.307 11.4408 14.8345 13.1958 14.9989 15.0026C14.9989 16.3286 14.4721 17.6003 13.5345 18.5379C12.5969 19.4755 11.3252 20.0023 9.99925 20.0023ZM38.8971 0.428736C38.4837 0.149318 37.9961 0 37.4972 0C36.9982 0 36.5107 0.149318 36.0973 0.428736C35.7473 0.678718 27.4979 6.37829 27.4979 15.0026C27.4979 17.6546 28.5514 20.198 30.4266 22.0732C32.3019 23.9484 34.8452 25.0019 37.4972 25.0019C40.1491 25.0019 42.6925 23.9484 44.5677 22.0732C46.4429 20.198 47.4964 17.6546 47.4964 15.0026C47.4964 6.2783 39.247 0.653719 38.8971 0.428736ZM37.4972 20.0023C36.1712 20.0023 34.8995 19.4755 33.9619 18.5379C33.0243 17.6003 32.4976 16.3286 32.4976 15.0026C32.6689 13.1976 33.1994 11.445 34.058 9.84798C34.9166 8.25097 36.086 6.8418 37.4972 5.70334C38.9137 6.83694 40.0867 8.24494 40.9458 9.84289C41.8049 11.4408 42.3324 13.1958 42.4968 15.0026C42.4968 16.3286 41.9701 17.6003 41.0324 18.5379C40.0948 19.4755 38.8232 20.0023 37.4972 20.0023ZM26.398 25.4269C25.9846 25.1474 25.4971 24.9981 24.9981 24.9981C24.4992 24.9981 24.0116 25.1474 23.5982 25.4269C23.2482 25.6768 14.9989 31.3764 14.9989 40.0008C14.9989 42.6527 16.0524 45.1961 17.9276 47.0713C19.8028 48.9465 22.3462 50 24.9981 50C27.6501 50 30.1934 48.9465 32.0687 47.0713C33.9439 45.1961 34.9974 42.6527 34.9974 40.0008C34.9974 31.2764 26.748 25.6518 26.398 25.4269ZM24.9981 45.0004C23.6721 45.0004 22.4005 44.4736 21.4629 43.536C20.5252 42.5984 19.9985 41.3267 19.9985 40.0008C20.1698 38.1957 20.7004 36.4431 21.559 34.8461C22.4176 33.2491 23.5869 31.8399 24.9981 30.7015C26.4146 31.8351 27.5876 33.2431 28.4467 34.841C29.3058 36.439 29.8334 38.194 29.9977 40.0008C29.9977 41.3267 29.471 42.5984 28.5334 43.536C27.5958 44.4736 26.3241 45.0004 24.9981 45.0004Z" fill="#395A71"/>
</svg>
