<svg width="43" height="50" viewBox="0 0 43 50" fill="none" xmlns="http://www.w3.org/2000/svg">
<path d="M21.25 17.5C25.225 36.525 16.25 50 16.25 50H23.75C28.45 35.5 26.25 25.225 25 20L21.25 17.5ZM30.4 12.9C30.825 13.425 31.25 13.975 31.575 14.55C33.612 17.7702 34.5587 21.5605 34.2751 25.3603C33.9914 29.1602 32.4925 32.7679 30 35.65C31.0801 33.0316 31.5188 30.1931 31.2796 27.3708C31.0405 24.5485 30.1303 21.8243 28.625 19.425C28.425 19.1 28.2 18.825 28 18.525C26.5625 16.5186 24.7236 14.8329 22.6 13.575C19.0002 14.7239 15.8588 16.9876 13.6299 20.039C11.4009 23.0903 10.1998 26.7713 10.2 30.55C10.2 32.4 10.475 34.175 10.975 35.825C8.80734 32.8097 7.64402 29.1886 7.65 25.475C7.65 19.6 10.5 14.4 14.875 11.15C11.25 10.875 7.4 11.675 4.05 13.75C2.5 14.775 1.15 15.95 0 17.275C1.375 13.95 3.75 10.975 7 8.925C10.75 6.575 15 5.8 19.1 6.4C18.075 5 16.825 3.675 15.325 2.5C13.875 1.45 12.3 0.6 10.65 0C14.25 0.1 17.85 1.25 20.925 3.575C22.5 4.75 23.75 6.175 24.75 7.675C25 7.675 25.225 7.65 25.475 7.65C33.475 7.65 40.25 12.925 42.5 20.2C41.0934 18.2167 39.2929 16.5447 37.211 15.2887C35.129 14.0327 32.8104 13.2195 30.4 12.9Z" fill="#395A71"/>
</svg>
