<svg width="50" height="41" viewBox="0 0 50 41" fill="none" xmlns="http://www.w3.org/2000/svg">
<path d="M50 20.2381L42.7381 17.5476C42.119 14.8095 40.5714 13.2381 40.5714 13.2381C39.645 12.3099 38.5446 11.5734 37.3333 11.071C36.1219 10.5685 34.8233 10.3099 33.5119 10.3099C32.2005 10.3099 30.9019 10.5685 29.6905 11.071C28.4792 11.5734 27.3788 12.3099 26.4524 13.2381L22.9286 16.7619L7.14286 0C4.7619 9.52381 7.14286 19.0476 12.9762 26.7143L0 39.2857C0 39.2857 21.1667 44.0476 33.5 34.4048C40.0714 29.2619 41.5476 26.2619 42.4762 23.0952L50 20.2381ZM37.4048 20.7619C36.4762 21.6905 34.9524 21.6905 34.0238 20.7619C33.8031 20.5416 33.628 20.28 33.5085 19.992C33.389 19.7039 33.3275 19.3952 33.3275 19.0833C33.3275 18.7715 33.389 18.4627 33.5085 18.1747C33.628 17.8867 33.8031 17.625 34.0238 17.4048C34.9524 16.4762 36.4762 16.4762 37.4048 17.4048C38.3333 18.3333 38.3333 19.8333 37.4048 20.7619Z" fill="#395A71"/>
</svg>
