<svg width="50" height="50" viewBox="0 0 50 50" fill="none" xmlns="http://www.w3.org/2000/svg">
<path d="M31.25 50H18.75C17.6453 49.9989 16.5861 49.5596 15.8049 48.7784C15.0238 47.9972 14.5844 46.9381 14.5833 45.8333V35.4167H4.16667C3.06194 35.4156 2.00277 34.9762 1.22161 34.1951C0.440445 33.4139 0.00110308 32.3547 0 31.25V18.75C0.00110308 17.6453 0.440445 16.5861 1.22161 15.8049C2.00277 15.0238 3.06194 14.5844 4.16667 14.5833H14.5833V4.16667C14.5844 3.06194 15.0238 2.00277 15.8049 1.22161C16.5861 0.440445 17.6453 0.00110308 18.75 0H31.25C32.3547 0.00110308 33.4139 0.440445 34.1951 1.22161C34.9762 2.00277 35.4156 3.06194 35.4167 4.16667V14.5833H45.8333C46.9381 14.5844 47.9972 15.0238 48.7784 15.8049C49.5596 16.5861 49.9989 17.6453 50 18.75V31.25C49.9983 32.3546 49.5588 33.4134 48.7778 34.1945C47.9967 34.9755 46.9379 35.415 45.8333 35.4167H35.4167V45.8333C35.415 46.9379 34.9755 47.9967 34.1945 48.7778C33.4134 49.5588 32.3546 49.9983 31.25 50ZM4.16667 18.75V31.25H18.75V45.8333H31.25V31.25H45.8333V18.75H31.25V4.16667H18.75V18.75H4.16667Z" fill="#395A71"/>
</svg>
