<svg width="50" height="35" viewBox="0 0 50 35" fill="none" xmlns="http://www.w3.org/2000/svg">
<path d="M50 17.1852C50 15.57 48.6064 12.6188 45.5458 9.95861C43.7989 8.45599 41.8079 7.26303 39.659 6.43124C39.5876 6.4045 39.5087 6.40529 39.4378 6.43344C39.3669 6.4616 39.3089 6.51511 39.2752 6.58358C39.2606 6.6119 39.2459 6.63925 39.2293 6.66757L38.2928 8.22031C36.7135 10.9475 35.8823 14.0434 35.8835 17.1949C35.8847 20.3464 36.7182 23.4417 38.2997 26.1677L38.3221 26.2058L39.1756 27.7683C39.2209 27.8513 39.2948 27.9151 39.3835 27.9478C39.4722 27.9804 39.5698 27.9798 39.6581 27.9461C46.8388 25.1365 50 19.6745 50 17.1852ZM40.828 17.1716C40.5044 17.2139 40.1756 17.1538 39.8879 16.9998C39.6002 16.8458 39.3679 16.6055 39.2237 16.3127C39.0795 16.02 39.0305 15.6894 39.0838 15.3674C39.137 15.0454 39.2897 14.7482 39.5205 14.5174C39.7513 14.2866 40.0485 14.1339 40.3705 14.0807C40.6925 14.0274 41.0231 14.0764 41.3159 14.2206C41.6086 14.3648 41.8489 14.5971 42.0029 14.8848C42.1569 15.1725 42.217 15.5013 42.1747 15.8249C42.13 16.1664 41.9738 16.4836 41.7302 16.7271C41.4867 16.9707 41.1695 17.1269 40.828 17.1716Z" fill="#395A71"/>
<path d="M32.7586 17.1852C32.7573 13.4805 33.7371 9.84146 35.5985 6.63827L35.6102 6.61776L36.0614 5.86873C36.094 5.81536 36.1133 5.75495 36.1177 5.69257C36.1221 5.63018 36.1115 5.56765 36.0867 5.51024C36.0619 5.45282 36.0237 5.40219 35.9753 5.36261C35.9269 5.32303 35.8697 5.29565 35.8085 5.28278C34.5443 5.01836 33.2631 4.84247 31.9744 4.75641C31.8225 4.7466 31.6768 4.69225 31.5555 4.60016C29.6727 3.16851 25.9402 0.664579 22.1355 0.0210188C21.8755 -0.0220624 21.6088 0.00131863 21.3603 0.0889858C21.1118 0.176653 20.8894 0.325758 20.714 0.522429C20.5386 0.719101 20.4158 0.956948 20.3569 1.21384C20.2981 1.47074 20.3053 1.73834 20.3777 1.99174L21.4148 5.62165C21.4417 5.71572 21.4324 5.81649 21.3887 5.90401C21.3449 5.99154 21.2699 6.05945 21.1784 6.09431C17.5798 7.43124 14.4801 9.87853 12.2194 11.7438C12.081 11.857 11.908 11.9194 11.7292 11.9205C11.5504 11.9215 11.3767 11.8612 11.237 11.7496C10.9297 11.5055 10.6142 11.2649 10.2907 11.028C6.41953 8.20078 1.87164 7.82871 1.68023 7.81503C1.43721 7.79667 1.19326 7.83542 0.967881 7.92816C0.742504 8.02091 0.541948 8.1651 0.382241 8.34919C0.222535 8.53329 0.108106 8.75219 0.0481003 8.9884C-0.0119052 9.22461 -0.0158235 9.47159 0.0366586 9.70958C0.0776746 9.89806 0.934128 13.6833 3.13239 16.7028C3.23135 16.8381 3.28469 17.0015 3.28469 17.1691C3.28469 17.3368 3.23135 17.5001 3.13239 17.6354C0.934128 20.654 0.0776746 24.4402 0.0366586 24.6287C-0.0158235 24.8667 -0.0119052 25.1136 0.0481003 25.3498C0.108106 25.5861 0.222535 25.805 0.382241 25.9891C0.541948 26.1731 0.742504 26.3173 0.967881 26.4101C1.19326 26.5028 1.43721 26.5416 1.68023 26.5232C1.87554 26.5095 6.41953 26.1326 10.2858 23.3122C10.6015 23.0805 10.9098 22.8454 11.2106 22.6072C11.3504 22.4957 11.5242 22.4356 11.703 22.4368C11.8818 22.4381 12.0548 22.5006 12.193 22.614C14.4635 24.488 17.569 26.9382 21.1775 28.2781C21.2687 28.313 21.3436 28.3807 21.3873 28.468C21.431 28.5553 21.4405 28.6559 21.4138 28.7498L20.3728 32.3807C20.3004 32.6341 20.2933 32.9017 20.3521 33.1586C20.4109 33.4155 20.5337 33.6533 20.7091 33.85C20.8846 34.0467 21.1069 34.1958 21.3554 34.2834C21.6039 34.3711 21.8706 34.3945 22.1306 34.3514C23.8064 34.0682 27.1971 33.0955 31.5106 29.7781C31.6338 29.6841 31.7818 29.6281 31.9364 29.617C33.2234 29.5327 34.5032 29.3597 35.7665 29.0994C35.8261 29.0869 35.882 29.0606 35.9296 29.0226C35.9773 28.9847 36.0154 28.9361 36.0409 28.8808C36.0664 28.8254 36.0787 28.7649 36.0766 28.704C36.0746 28.6431 36.0583 28.5836 36.0292 28.5301L35.5887 27.7205C33.7328 24.5198 32.7564 20.8851 32.7586 17.1852Z" fill="#395A71"/>
</svg>
