<svg width="47" height="33" viewBox="0 0 47 33" fill="none" xmlns="http://www.w3.org/2000/svg">
<path d="M14.7393 14.6572H21.8989V20.7251H14.7393V28.9346H8.12549V20.7251H0.944824V14.6572H8.12549V6.67871H14.7393V14.6572ZM31.3052 13.7544H34.6436C37.2891 13.7544 38.6118 12.4596 38.6118 9.87012C38.6118 8.8623 38.2969 8.04346 37.667 7.41357C37.0371 6.76969 36.1483 6.44775 35.0005 6.44775C34.0627 6.44775 33.2438 6.7207 32.5439 7.2666C31.8581 7.8125 31.5151 8.49137 31.5151 9.30322H24.4395C24.4395 7.69352 24.8874 6.25879 25.7832 4.99902C26.679 3.73926 27.9178 2.75944 29.4995 2.05957C31.0952 1.3457 32.8449 0.98877 34.7485 0.98877C38.1499 0.98877 40.8234 1.76562 42.769 3.31934C44.7147 4.87305 45.6875 7.00765 45.6875 9.72314C45.6875 11.0389 45.2816 12.2847 44.4697 13.4604C43.6719 14.6222 42.5031 15.5671 40.9634 16.2949C42.5871 16.8828 43.8608 17.7786 44.7847 18.9824C45.7085 20.1722 46.1704 21.6489 46.1704 23.4126C46.1704 26.1421 45.1206 28.3257 43.021 29.9634C40.9214 31.6011 38.1639 32.4199 34.7485 32.4199C32.7469 32.4199 30.8853 32.042 29.1636 31.2861C27.4559 30.5163 26.1611 29.4595 25.2793 28.1157C24.3975 26.758 23.9565 25.2183 23.9565 23.4966H31.0742C31.0742 24.4344 31.4521 25.2463 32.208 25.9321C32.9639 26.618 33.8947 26.9609 35.0005 26.9609C36.2463 26.9609 37.2401 26.618 37.9819 25.9321C38.7238 25.2323 39.0947 24.3434 39.0947 23.2656C39.0947 21.7259 38.7098 20.6341 37.9399 19.9902C37.1701 19.3464 36.1063 19.0244 34.7485 19.0244H31.3052V13.7544Z" fill="#395A71"/>
</svg>
