<svg width="50" height="50" viewBox="0 0 50 50" fill="none" xmlns="http://www.w3.org/2000/svg">
<path d="M50 7.5L47.7757 10.85C49.1253 11.75 50 13.275 50 15V23.75L46.2512 25L42.4024 18.85C42.0775 18.325 41.2527 18.55 41.2527 19.175V28.125C41.2527 30.575 40.278 32.775 38.7535 34.45V50H32.5055V37.5H31.8807C31.3558 37.5 30.831 37.425 30.3311 37.35L18.6348 35.4L16.4355 40.3L18.8597 50H12.4117L10.1125 40.75C9.93752 40.075 10.0125 39.35 10.2874 38.75L12.5117 33.75C11.3901 33.0155 10.4632 32.02 9.81026 30.8488C9.15737 29.6776 8.79799 28.3655 8.76289 27.025C8.66292 27.4 8.61294 27.95 8.68791 28.75C8.76289 29.85 9.0378 31.475 8.86286 33.275C8.76289 35.075 7.96314 36.925 6.91347 38.15C5.81381 39.375 4.63918 40.225 3.38957 40.875L1.64012 39.125C2.11497 37.95 2.58982 36.9 2.68979 35.925C2.83974 35 2.6648 34.25 2.38988 33.575L1.0653 30.75C0.540461 29.475 -0.109336 27.625 0.0156248 25.45C0.0906013 23.325 1.26523 20.55 3.48954 19.025C5.73884 17.5 8.16308 17.275 10.1375 17.7C11.3871 17.95 12.6617 18.55 13.7613 19.4C14.686 18.975 15.7607 18.75 16.8854 18.75H31.2559V17.5C31.2559 11.975 35.7295 7.5 41.2527 7.5L50 0L47.5008 7.5H50Z" fill="#395A71"/>
</svg>
