<svg width="38" height="50" viewBox="0 0 38 50" fill="none" xmlns="http://www.w3.org/2000/svg">
<path fill-rule="evenodd" clip-rule="evenodd" d="M18.6323 2.22891C18.2575 2.20123 17.8817 2.18737 17.5059 2.18735V0C17.9358 0.000209608 18.3655 0.016261 18.7942 0.0481216L18.6323 2.22891ZM23.0158 3.21321C22.3146 2.94265 21.5945 2.72405 20.8612 2.5592L21.3403 0.424345C22.178 0.612457 23.0027 0.861814 23.8032 1.17242L23.0158 3.21321ZM26.0124 4.76623C25.6997 4.55766 25.3794 4.36067 25.0522 4.17564L26.1306 2.27265C26.8784 2.69642 27.5942 3.17455 28.272 3.70318L26.9268 5.42899C26.6302 5.19764 26.3252 4.9773 26.0124 4.76842V4.76623ZM30.024 8.68158C29.5914 8.06688 29.114 7.48493 28.5957 6.94045L30.1793 5.43118C30.7699 6.05457 31.3168 6.72172 31.8133 7.42167L30.024 8.68158ZM31.6514 11.6389C31.5079 11.2921 31.3517 10.9506 31.1833 10.6152L33.1366 9.63089C33.5229 10.3988 33.8519 11.1943 34.1209 12.0107L32.043 12.6954C31.9254 12.3385 31.7948 11.9861 31.6514 11.6389ZM32.8107 17.1225C32.793 16.3708 32.7199 15.6215 32.592 14.8805L34.7465 14.5087C34.8931 15.353 34.9784 16.2104 35.0003 17.0679L32.8129 17.1225H32.8107ZM32.5242 20.4867C32.5964 20.1148 32.6554 19.7452 32.7014 19.3711L34.8734 19.6402C34.7683 20.4936 34.6002 21.338 34.3703 22.1666L32.2617 21.5825C32.3623 21.2216 32.4498 20.8563 32.5242 20.4867ZM30.4418 25.6904C30.8443 25.0561 31.1986 24.3911 31.5049 23.7043L33.5041 24.5901C33.1541 25.3776 32.7495 26.1344 32.2901 26.8606L30.4418 25.6904ZM28.3332 28.3261C28.6001 28.0593 28.856 27.7837 29.0988 27.4993L30.7568 28.9277C30.476 29.2532 30.1835 29.5684 29.8797 29.8726L28.3332 28.3261Z" fill="#395A71"/>
<path fill-rule="evenodd" clip-rule="evenodd" d="M17.5056 2.18735C14.9877 2.18753 12.5087 2.80866 10.2882 3.99571C8.06767 5.18277 6.17416 6.89911 4.77537 8.99273C3.37659 11.0863 2.51571 13.4926 2.26897 15.9984C2.02224 18.5042 2.39728 21.0321 3.36086 23.3583C4.32444 25.6846 5.84683 27.7373 7.79319 29.3346C9.73954 30.932 12.0498 32.0247 14.5193 32.5159C16.9888 33.0072 19.5414 32.8819 21.9509 32.1511C24.3604 31.4202 26.5525 30.1065 28.333 28.3261L29.8794 29.8726C27.8446 31.9085 25.339 33.4111 22.5847 34.2473C19.8304 35.0834 16.9123 35.2273 14.0891 34.6661C11.2659 34.105 8.62467 32.8561 6.39946 31.0302C4.17425 29.2043 2.43377 26.8577 1.33222 24.1984C0.230672 21.539 -0.197933 18.6491 0.0843832 15.7845C0.366699 12.9199 1.35122 10.1692 2.95071 7.77606C4.5502 5.38292 6.71528 3.42125 9.25412 2.06486C11.793 0.708471 14.6272 -0.000762798 17.5056 6.15647e-07V2.18735Z" fill="#395A71"/>
<path fill-rule="evenodd" clip-rule="evenodd" d="M16.412 6.56204C16.7021 6.56204 16.9803 6.67727 17.1854 6.88237C17.3905 7.08748 17.5057 7.36566 17.5057 7.65572V19.0518L24.6102 23.1115C24.8547 23.259 25.0319 23.4963 25.1037 23.7727C25.1756 24.0491 25.1365 24.3426 24.9948 24.5906C24.8532 24.8385 24.6201 25.0212 24.3455 25.0996C24.0709 25.178 23.7765 25.1459 23.5253 25.0101L15.8696 20.6354C15.7022 20.5398 15.563 20.4017 15.4662 20.2349C15.3694 20.0682 15.3184 19.8789 15.3184 19.6861V7.65572C15.3184 7.36566 15.4336 7.08748 15.6387 6.88237C15.8438 6.67727 16.122 6.56204 16.412 6.56204Z" fill="#395A71"/>
<path d="M7.69336 47H6V40.4727L3.97852 41.0996V39.7227L7.51172 38.457H7.69336V47ZM16.2129 43.4727C16.2129 44.6523 15.9688 45.5547 15.4805 46.1797C14.9922 46.8047 14.2773 47.1172 13.3359 47.1172C12.4062 47.1172 11.6953 46.8105 11.2031 46.1973C10.7109 45.584 10.459 44.7051 10.4473 43.5605V41.9902C10.4473 40.7988 10.6934 39.8945 11.1855 39.2773C11.6816 38.6602 12.3945 38.3516 13.3242 38.3516C14.2539 38.3516 14.9648 38.6582 15.457 39.2715C15.9492 39.8809 16.2012 40.7578 16.2129 41.9023V43.4727ZM14.5195 41.75C14.5195 41.043 14.4219 40.5293 14.2266 40.209C14.0352 39.8848 13.7344 39.7227 13.3242 39.7227C12.9258 39.7227 12.6309 39.877 12.4395 40.1855C12.252 40.4902 12.1523 40.9688 12.1406 41.6211V43.6953C12.1406 44.3906 12.2344 44.9082 12.4219 45.248C12.6133 45.584 12.918 45.752 13.3359 45.752C13.75 45.752 14.0488 45.5898 14.2324 45.2656C14.416 44.9414 14.5117 44.4453 14.5195 43.7773V41.75ZM20.7246 44.0293H17.4258V42.6641H20.7246V44.0293ZM26.127 47H24.4336V40.4727L22.4121 41.0996V39.7227L25.9453 38.457H26.127V47ZM29.1562 42.8047L29.6484 38.4688H34.4297V39.8809H31.0371L30.8262 41.7148C31.2285 41.5 31.6562 41.3926 32.1094 41.3926C32.9219 41.3926 33.5586 41.6445 34.0195 42.1484C34.4805 42.6523 34.7109 43.3574 34.7109 44.2637C34.7109 44.8145 34.5938 45.3086 34.3594 45.7461C34.1289 46.1797 33.7969 46.5176 33.3633 46.7598C32.9297 46.998 32.418 47.1172 31.8281 47.1172C31.3125 47.1172 30.834 47.0137 30.3926 46.8066C29.9512 46.5957 29.6016 46.3008 29.3438 45.9219C29.0898 45.543 28.9551 45.1113 28.9395 44.627H30.6152C30.6504 44.9824 30.7734 45.2598 30.9844 45.459C31.1992 45.6543 31.4785 45.752 31.8223 45.752C32.2051 45.752 32.5 45.6152 32.707 45.3418C32.9141 45.0645 33.0176 44.6738 33.0176 44.1699C33.0176 43.6855 32.8984 43.3145 32.6602 43.0566C32.4219 42.7988 32.084 42.6699 31.6465 42.6699C31.2441 42.6699 30.918 42.7754 30.668 42.9863L30.5039 43.1387L29.1562 42.8047ZM36.3516 41.0879L35.5547 40.625C35.8906 40.0977 36.0645 39.5527 36.0762 38.9902V38H37.4238V38.9082C37.4238 39.2598 37.3262 39.6406 37.1309 40.0508C36.9355 40.4609 36.6758 40.8066 36.3516 41.0879Z" fill="#395A71"/>
</svg>
