<svg width="36" height="50" viewBox="0 0 36 50" fill="none" xmlns="http://www.w3.org/2000/svg">
<path fill-rule="evenodd" clip-rule="evenodd" d="M18.6321 2.22891C18.2572 2.20123 17.8815 2.18737 17.5056 2.18735V0C17.9355 0.000209608 18.3652 0.016261 18.794 0.0481216L18.6321 2.22891ZM23.0155 3.21321C22.3144 2.94265 21.5943 2.72405 20.861 2.5592L21.34 0.424345C22.1778 0.612457 23.0024 0.861814 23.803 1.17242L23.0155 3.21321ZM26.0122 4.76623C25.6995 4.55766 25.3792 4.36067 25.052 4.17564L26.1303 2.27265C26.8782 2.69642 27.5939 3.17455 28.2717 3.70318L26.9265 5.42899C26.63 5.19764 26.325 4.9773 26.0122 4.76842V4.76623ZM30.0238 8.68158C29.5911 8.06688 29.1137 7.48493 28.5955 6.94045L30.1791 5.43118C30.7697 6.05457 31.3165 6.72172 31.813 7.42167L30.0238 8.68158ZM31.6512 11.6389C31.5076 11.2921 31.3515 10.9506 31.1831 10.6152L33.1364 9.63089C33.5227 10.3988 33.8517 11.1943 34.1207 12.0107L32.0427 12.6954C31.9252 12.3385 31.7946 11.9861 31.6512 11.6389ZM32.8105 17.1225C32.7928 16.3708 32.7197 15.6215 32.5917 14.8805L34.7463 14.5087C34.8928 15.353 34.9781 16.2104 35 17.0679L32.8127 17.1225H32.8105ZM32.5239 20.4867C32.5961 20.1148 32.6552 19.7452 32.7011 19.3711L34.8731 19.6402C34.7681 20.4936 34.5999 21.338 34.3701 22.1666L32.2615 21.5825C32.3621 21.2216 32.4496 20.8563 32.5239 20.4867ZM30.4416 25.6904C30.8441 25.0561 31.1984 24.3911 31.5046 23.7043L33.5039 24.5901C33.1539 25.3776 32.7492 26.1344 32.2899 26.8606L30.4416 25.6904ZM28.333 28.3261C28.5998 28.0593 28.8558 27.7837 29.0986 27.4993L30.7566 28.9277C30.4758 29.2532 30.1832 29.5684 29.8794 29.8726L28.333 28.3261Z" fill="#395A71"/>
<path fill-rule="evenodd" clip-rule="evenodd" d="M17.5056 2.18735C14.9877 2.18753 12.5087 2.80866 10.2882 3.99571C8.06767 5.18277 6.17416 6.89911 4.77537 8.99273C3.37659 11.0863 2.51571 13.4926 2.26897 15.9984C2.02224 18.5042 2.39728 21.0321 3.36086 23.3583C4.32444 25.6846 5.84683 27.7373 7.79319 29.3346C9.73954 30.932 12.0498 32.0247 14.5193 32.5159C16.9888 33.0072 19.5414 32.8819 21.9509 32.1511C24.3604 31.4202 26.5525 30.1065 28.333 28.3261L29.8794 29.8726C27.8446 31.9085 25.339 33.4111 22.5847 34.2473C19.8304 35.0834 16.9123 35.2273 14.0891 34.6661C11.2659 34.105 8.62467 32.8561 6.39946 31.0302C4.17425 29.2043 2.43377 26.8577 1.33222 24.1984C0.230672 21.539 -0.197933 18.6491 0.0843832 15.7845C0.366699 12.9199 1.35122 10.1692 2.95071 7.77606C4.5502 5.38292 6.71528 3.42125 9.25412 2.06486C11.793 0.708471 14.6272 -0.000762798 17.5056 6.15647e-07V2.18735Z" fill="#395A71"/>
<path fill-rule="evenodd" clip-rule="evenodd" d="M16.4119 6.56204C16.702 6.56204 16.9802 6.67727 17.1853 6.88237C17.3904 7.08748 17.5056 7.36566 17.5056 7.65572V19.0518L24.6101 23.1115C24.8546 23.259 25.0318 23.4963 25.1037 23.7727C25.1755 24.0491 25.1364 24.3426 24.9948 24.5906C24.8531 24.8385 24.62 25.0212 24.3454 25.0996C24.0708 25.178 23.7764 25.1459 23.5252 25.0101L15.8695 20.6354C15.7021 20.5398 15.5629 20.4017 15.4661 20.2349C15.3693 20.0682 15.3183 19.8789 15.3183 19.6861V7.65572C15.3183 7.36566 15.4335 7.08748 15.6386 6.88237C15.8437 6.67727 16.1219 6.56204 16.4119 6.56204Z" fill="#395A71"/>
<path d="M5.69336 47H4V40.4727L1.97852 41.0996V39.7227L5.51172 38.457H5.69336V47ZM8.72266 42.8047L9.21484 38.4688H13.9961V39.8809H10.6035L10.3926 41.7148C10.7949 41.5 11.2227 41.3926 11.6758 41.3926C12.4883 41.3926 13.125 41.6445 13.5859 42.1484C14.0469 42.6523 14.2773 43.3574 14.2773 44.2637C14.2773 44.8145 14.1602 45.3086 13.9258 45.7461C13.6953 46.1797 13.3633 46.5176 12.9297 46.7598C12.4961 46.998 11.9844 47.1172 11.3945 47.1172C10.8789 47.1172 10.4004 47.0137 9.95898 46.8066C9.51758 46.5957 9.16797 46.3008 8.91016 45.9219C8.65625 45.543 8.52148 45.1113 8.50586 44.627H10.1816C10.2168 44.9824 10.3398 45.2598 10.5508 45.459C10.7656 45.6543 11.0449 45.752 11.3887 45.752C11.7715 45.752 12.0664 45.6152 12.2734 45.3418C12.4805 45.0645 12.584 44.6738 12.584 44.1699C12.584 43.6855 12.4648 43.3145 12.2266 43.0566C11.9883 42.7988 11.6504 42.6699 11.2129 42.6699C10.8105 42.6699 10.4844 42.7754 10.2344 42.9863L10.0703 43.1387L8.72266 42.8047ZM18.7246 44.0293H15.4258V42.6641H18.7246V44.0293ZM25.8613 47H20.0137V45.8398L22.7734 42.8984C23.1523 42.4844 23.4316 42.123 23.6113 41.8145C23.7949 41.5059 23.8867 41.2129 23.8867 40.9355C23.8867 40.5566 23.791 40.2598 23.5996 40.0449C23.4082 39.8262 23.1348 39.7168 22.7793 39.7168C22.3965 39.7168 22.0938 39.8496 21.8711 40.1152C21.6523 40.377 21.543 40.7227 21.543 41.1523H19.8438C19.8438 40.6328 19.9668 40.1582 20.2129 39.7285C20.4629 39.2988 20.8145 38.9629 21.2676 38.7207C21.7207 38.4746 22.2344 38.3516 22.8086 38.3516C23.6875 38.3516 24.3691 38.5625 24.8535 38.9844C25.3418 39.4062 25.5859 40.002 25.5859 40.7715C25.5859 41.1934 25.4766 41.623 25.2578 42.0605C25.0391 42.498 24.6641 43.0078 24.1328 43.5898L22.1934 45.6348H25.8613V47ZM32.6465 43.4727C32.6465 44.6523 32.4023 45.5547 31.9141 46.1797C31.4258 46.8047 30.7109 47.1172 29.7695 47.1172C28.8398 47.1172 28.1289 46.8105 27.6367 46.1973C27.1445 45.584 26.8926 44.7051 26.8809 43.5605V41.9902C26.8809 40.7988 27.127 39.8945 27.6191 39.2773C28.1152 38.6602 28.8281 38.3516 29.7578 38.3516C30.6875 38.3516 31.3984 38.6582 31.8906 39.2715C32.3828 39.8809 32.6348 40.7578 32.6465 41.9023V43.4727ZM30.9531 41.75C30.9531 41.043 30.8555 40.5293 30.6602 40.209C30.4688 39.8848 30.168 39.7227 29.7578 39.7227C29.3594 39.7227 29.0645 39.877 28.873 40.1855C28.6855 40.4902 28.5859 40.9688 28.5742 41.6211V43.6953C28.5742 44.3906 28.668 44.9082 28.8555 45.248C29.0469 45.584 29.3516 45.752 29.7695 45.752C30.1836 45.752 30.4824 45.5898 30.666 45.2656C30.8496 44.9414 30.9453 44.4453 30.9531 43.7773V41.75ZM34.3516 41.0879L33.5547 40.625C33.8906 40.0977 34.0645 39.5527 34.0762 38.9902V38H35.4238V38.9082C35.4238 39.2598 35.3262 39.6406 35.1309 40.0508C34.9355 40.4609 34.6758 40.8066 34.3516 41.0879Z" fill="#395A71"/>
</svg>
