<svg width="33" height="50" viewBox="0 0 33 50" fill="none" xmlns="http://www.w3.org/2000/svg">
<path d="M10 4.66731L12.0978 25.0603C11.439 25.5377 10.9109 26.1273 10.549 26.7893C10.1871 27.4513 9.99986 28.1703 10 28.8978C10 31.7152 12.7404 34 16.12 34C19.4996 34 22.24 31.7152 22.24 28.8978C22.2401 28.1705 22.053 27.4517 21.6913 26.7898C21.3297 26.1279 20.8019 25.5384 20.1436 25.0609L22.24 4.66731C22.24 -1.55577 10 -1.55577 10 4.66731ZM20.7107 28.8978C20.7108 29.4002 20.5921 29.8978 20.3614 30.362C20.1308 30.8262 19.7927 31.2481 19.3664 31.6034C18.9401 31.9587 18.434 32.2406 17.877 32.433C17.32 32.6253 16.7229 32.7244 16.12 32.7244C14.9025 32.724 13.7351 32.3206 12.8745 31.603C12.0139 30.8854 11.5305 29.9123 11.5307 28.8978C11.531 28.2407 11.7347 27.5947 12.1221 27.0224C12.5095 26.45 13.0674 25.9706 13.742 25.6304L13.6666 24.3945H12.8798L12.8397 23.5519H13.6149L13.5204 22.0032H12.6466L12.6037 21.1617H13.468L13.3728 19.613H12.3276L12.28 18.7704H13.3211L13.2259 17.2223H12.1964L12.1474 16.3808H13.1742L13.079 14.831H12.0386L11.9876 13.9895H13.028L12.4473 4.53925C12.4473 0.931875 19.7913 0.931875 19.7913 4.53925L18.4986 25.6304C19.1734 25.9706 19.7314 26.45 20.1189 27.0223C20.5064 27.5947 20.7102 28.2406 20.7107 28.8978Z" fill="#395A71"/>
<path d="M17.6854 25.9902L18.5687 10.9794C18.5687 10.6014 17.4732 10.2954 16.12 10.2954C14.7688 10.2954 13.6713 10.6014 13.6713 10.9794L13.8495 13.9883H15.3054L15.3564 14.8298H13.8984L13.9902 16.3797H15.3292L15.3781 17.2212H14.0392L14.131 18.7693H15.3346L15.3822 19.6119H14.18L14.2711 21.1606H15.3598L15.4026 22.0021H14.3214L14.4125 23.5508H15.387L15.4271 24.3934H14.4628L14.5567 25.9885C13.9288 26.2231 13.3885 26.5944 12.9927 27.0634C12.5969 27.5324 12.3602 28.0817 12.3076 28.6534C12.2549 29.2251 12.3884 29.798 12.6937 30.3118C12.9991 30.8256 13.4651 31.2613 14.0427 31.5729C14.6203 31.8845 15.2881 32.0604 15.9756 32.0823C16.6632 32.1041 17.3451 31.971 17.9495 31.697C18.5538 31.423 19.0583 31.0181 19.4098 30.5252C19.7612 30.0323 19.9466 29.4695 19.9464 28.8961C19.9452 28.2817 19.7313 27.6807 19.3302 27.1653C18.9291 26.6498 18.358 26.2418 17.6854 25.9902Z" fill="#395A71"/>
<path d="M5.17383 38.3809V39.7754H5.00977C4.24414 39.7871 3.62695 39.9863 3.1582 40.373C2.69336 40.7598 2.41406 41.2969 2.32031 41.9844C2.77344 41.5234 3.3457 41.293 4.03711 41.293C4.7793 41.293 5.36914 41.5586 5.80664 42.0898C6.24414 42.6211 6.46289 43.3203 6.46289 44.1875C6.46289 44.7422 6.3418 45.2441 6.09961 45.6934C5.86133 46.1426 5.52148 46.4922 5.08008 46.7422C4.64258 46.9922 4.14648 47.1172 3.5918 47.1172C2.69336 47.1172 1.9668 46.8047 1.41211 46.1797C0.861328 45.5547 0.585938 44.7207 0.585938 43.6777V43.0684C0.585938 42.1426 0.759766 41.3262 1.10742 40.6191C1.45898 39.9082 1.96094 39.3594 2.61328 38.9727C3.26953 38.582 4.0293 38.3848 4.89258 38.3809H5.17383ZM3.52148 42.6523C3.24805 42.6523 3 42.7246 2.77734 42.8691C2.55469 43.0098 2.39062 43.1973 2.28516 43.4316V43.9473C2.28516 44.5137 2.39648 44.957 2.61914 45.2773C2.8418 45.5938 3.1543 45.752 3.55664 45.752C3.91992 45.752 4.21289 45.6094 4.43555 45.3242C4.66211 45.0352 4.77539 44.6621 4.77539 44.2051C4.77539 43.7402 4.66211 43.3652 4.43555 43.0801C4.20898 42.7949 3.9043 42.6523 3.52148 42.6523ZM13.2129 43.4727C13.2129 44.6523 12.9688 45.5547 12.4805 46.1797C11.9922 46.8047 11.2773 47.1172 10.3359 47.1172C9.40625 47.1172 8.69531 46.8105 8.20312 46.1973C7.71094 45.584 7.45898 44.7051 7.44727 43.5605V41.9902C7.44727 40.7988 7.69336 39.8945 8.18555 39.2773C8.68164 38.6602 9.39453 38.3516 10.3242 38.3516C11.2539 38.3516 11.9648 38.6582 12.457 39.2715C12.9492 39.8809 13.2012 40.7578 13.2129 41.9023V43.4727ZM11.5195 41.75C11.5195 41.043 11.4219 40.5293 11.2266 40.209C11.0352 39.8848 10.7344 39.7227 10.3242 39.7227C9.92578 39.7227 9.63086 39.877 9.43945 40.1855C9.25195 40.4902 9.15234 40.9688 9.14062 41.6211V43.6953C9.14062 44.3906 9.23438 44.9082 9.42188 45.248C9.61328 45.584 9.91797 45.752 10.3359 45.752C10.75 45.752 11.0488 45.5898 11.2324 45.2656C11.416 44.9414 11.5117 44.4453 11.5195 43.7773V41.75ZM17.7246 44.0293H14.4258V42.6641H17.7246V44.0293ZM24.8145 39.418L21.5156 47H19.7285L23.0332 39.8398H18.791V38.4688H24.8145V39.418ZM31.6465 43.4727C31.6465 44.6523 31.4023 45.5547 30.9141 46.1797C30.4258 46.8047 29.7109 47.1172 28.7695 47.1172C27.8398 47.1172 27.1289 46.8105 26.6367 46.1973C26.1445 45.584 25.8926 44.7051 25.8809 43.5605V41.9902C25.8809 40.7988 26.127 39.8945 26.6191 39.2773C27.1152 38.6602 27.8281 38.3516 28.7578 38.3516C29.6875 38.3516 30.3984 38.6582 30.8906 39.2715C31.3828 39.8809 31.6348 40.7578 31.6465 41.9023V43.4727ZM29.9531 41.75C29.9531 41.043 29.8555 40.5293 29.6602 40.209C29.4688 39.8848 29.168 39.7227 28.7578 39.7227C28.3594 39.7227 28.0645 39.877 27.873 40.1855C27.6855 40.4902 27.5859 40.9688 27.5742 41.6211V43.6953C27.5742 44.3906 27.668 44.9082 27.8555 45.248C28.0469 45.584 28.3516 45.752 28.7695 45.752C29.1836 45.752 29.4824 45.5898 29.666 45.2656C29.8496 44.9414 29.9453 44.4453 29.9531 43.7773V41.75Z" fill="#395A71"/>
</svg>
